<?xml version="1.0" encoding="utf-8"?>
<!-- Generator: Adobe Illustrator 16.0.0, SVG Export Plug-In . SVG Version: 6.00 Build 0)  -->
<!DOCTYPE svg PUBLIC "-//W3C//DTD SVG 1.0//EN" "http://www.w3.org/TR/2001/REC-SVG-20010904/DTD/svg10.dtd">
<svg version="1.0" id="Layer_1" xmlns="http://www.w3.org/2000/svg" xmlns:xlink="http://www.w3.org/1999/xlink" x="0px" y="0px"
	 width="733.132px" height="545.217px" viewBox="0 0 733.132 545.217" enable-background="new 0 0 733.132 545.217"
	 xml:space="preserve">
<g>
	<g>
		<g>
			<g>
				<g>
					<path fill="#F5F5F5" d="M562.917,232.041h104.989h28.108l-21.682,15.645v30.781c0,3.551-2.878,6.43-6.427,6.43H562.917
						c-3.55,0-6.429-2.879-6.429-6.43v-39.998C556.488,234.918,559.367,232.041,562.917,232.041z"/>
				</g>
			</g>
		</g>
		<g>
			<g>
				<g>
					<g>
						<path fill="#E1E1E1" d="M568.469,253.795c0,0.129,20.074,0.232,44.831,0.232c24.765,0,44.835-0.104,44.835-0.232
							s-20.07-0.232-44.835-0.232C588.543,253.563,568.469,253.666,568.469,253.795z"/>
					</g>
				</g>
			</g>
		</g>
		<g>
			<g>
				<g>
					<g>
						<path fill="#E1E1E1" d="M568.469,265.613c0,0.127,20.074,0.232,44.831,0.232c24.765,0,44.835-0.105,44.835-0.232
							c0-0.129-20.07-0.232-44.835-0.232C588.543,265.381,568.469,265.484,568.469,265.613z"/>
					</g>
				</g>
			</g>
		</g>
	</g>
	<g>
		<g>
			<g>
				<g>
					<g>
						<g>
							<rect x="354.546" y="118.459" fill="#E1E1E1" width="6.228" height="20.863"/>
						</g>
					</g>
					<g>
						<g>
							<rect x="302.521" y="115.436" fill="#E1E1E1" width="6.228" height="23.887"/>
						</g>
					</g>
					<g>
						<g>
							<rect x="315.526" y="110.457" fill="#E1E1E1" width="6.229" height="28.865"/>
						</g>
					</g>
					<g>
						<g>
							<rect x="328.533" y="112.041" fill="#E1E1E1" width="6.229" height="27.281"/>
						</g>
					</g>
					<g>
						<g>
							<rect x="341.54" y="102.813" fill="#E1E1E1" width="6.229" height="36.51"/>
						</g>
					</g>
					<g>
						<g>
							<rect x="367.553" y="102.988" fill="#E1E1E1" width="6.229" height="36.334"/>
						</g>
					</g>
					<g>
						<g>
							<rect x="380.559" y="114.922" fill="#E1E1E1" width="6.228" height="24.4"/>
						</g>
					</g>
					<g>
						<g>
							<rect x="393.564" y="104.59" fill="#E1E1E1" width="6.229" height="34.732"/>
						</g>
					</g>
					<g>
						<g>
							<rect x="406.57" y="96.766" fill="#E1E1E1" width="6.229" height="42.557"/>
						</g>
					</g>
					<g>
						<g>
							<rect x="419.577" y="104.412" fill="#E1E1E1" width="6.229" height="34.91"/>
						</g>
					</g>
				</g>
			</g>
		</g>
	</g>
	<g>
		<g>
			<g>
				<g>
					<path fill="#EBEBEB" d="M589.921,137.389l51.509-7.871c4.318,28.258-15.381,55.063-43.639,59.381
						c-28.258,4.316-55.063-15.383-59.38-43.641c-4.317-28.256,15.382-55.063,43.639-59.379c4.499-0.688,9.068-0.783,13.592-0.283
						L589.921,137.389z"/>
				</g>
			</g>
		</g>
		<g>
			<g>
				<g>
					<path fill="#E1E1E1" d="M606.634,85.762l-6.254,39.928l39.194-7.359C639.574,118.33,633.811,95.951,606.634,85.762z"/>
				</g>
			</g>
		</g>
	</g>
	<g>
		<g>
			<g>
				<path fill="#F5F5F5" d="M63.969,234.25c-0.227-14.146,11.045-25.84,25.127-26.068c14.081-0.227,25.721,11.098,25.946,25.244
					c0.227,14.146-11.044,25.84-25.126,26.066C75.835,259.721,64.194,248.396,63.969,234.25z M101.715,233.641
					c-0.107-6.764-5.674-12.178-12.405-12.07c-6.733,0.109-12.122,5.701-12.014,12.465c0.108,6.762,5.673,12.178,12.406,12.07
					C96.434,245.996,101.824,240.404,101.715,233.641z"/>
			</g>
		</g>
		<g>
			<g>
				<path fill="#E1E1E1" d="M63.969,234.25c-0.227-14.146,11.045-25.84,25.127-26.068l0.214,13.389
					c-6.733,0.109-12.122,5.701-12.014,12.465c0.108,6.762,5.673,12.178,12.406,12.068l0.214,13.389
					C75.835,259.721,64.195,248.396,63.969,234.25z"/>
			</g>
		</g>
		<g>
			<g>
				<path fill="#EBEBEB" d="M86.803,206.125c16.475-0.268,29.615,12.518,29.879,29.066l-15.59,0.252
					c-0.126-7.912-6.148-12.895-14.024-12.768L86.803,206.125z"/>
			</g>
		</g>
	</g>
	<g>
		<g>
			<g>
				<g>
					<g>
						<g>
							<g>
								<rect x="197.432" y="324.332" fill="#F5F5F5" width="32.464" height="38.594"/>
							</g>
						</g>
					</g>
					<g>
						<g>
							<g>
								<rect x="51.841" y="321.816" fill="#E1E1E1" width="146.71" height="43.535"/>
							</g>
						</g>
					</g>
					<g>
						<g>
							<g>
								<path fill="#E1E1E1" d="M230.879,325.477h-36.262v-3.66h36.262c1.011,0,1.83,0.818,1.83,1.83l0,0
									C232.709,324.658,231.89,325.477,230.879,325.477z"/>
							</g>
						</g>
					</g>
					<g>
						<g>
							<g>
								<path fill="#E1E1E1" d="M230.879,365.352h-36.262v-3.66h36.262c1.011,0,1.83,0.818,1.83,1.83l0,0
									C232.709,364.533,231.89,365.352,230.879,365.352z"/>
							</g>
						</g>
					</g>
					<g>
						<g>
							<g>
								<rect x="169.682" y="321.816" fill="#EBEBEB" width="17.334" height="43.535"/>
							</g>
						</g>
					</g>
					<g>
						<g>
							<g>
								<rect x="65.793" y="322.297" fill="#EBEBEB" width="17.333" height="43.537"/>
							</g>
						</g>
					</g>
					<g>
						<g>
							<g>
								<g>
									<ellipse fill="#E1E1E1" cx="214.204" cy="330.715" rx="15.692" ry="0.193"/>
								</g>
							</g>
						</g>
					</g>
					<g>
						<g>
							<g>
								<g>
									<ellipse fill="#E1E1E1" cx="214.204" cy="336.502" rx="15.692" ry="0.193"/>
								</g>
							</g>
						</g>
					</g>
					<g>
						<g>
							<g>
								<g>
									<ellipse fill="#E1E1E1" cx="214.204" cy="343.629" rx="15.692" ry="0.191"/>
								</g>
							</g>
						</g>
					</g>
					<g>
						<g>
							<g>
								<g>
									<ellipse fill="#E1E1E1" cx="214.204" cy="350.754" rx="15.692" ry="0.193"/>
								</g>
							</g>
						</g>
					</g>
					<g>
						<g>
							<g>
								<g>
									<ellipse fill="#E1E1E1" cx="214.204" cy="357.881" rx="15.692" ry="0.191"/>
								</g>
							</g>
						</g>
					</g>
				</g>
				<g>
					<g>
						<g>
							<rect x="94.361" y="339.709" fill="#EBEBEB" width="66.002" height="7.84"/>
						</g>
					</g>
				</g>
			</g>
			<g>
				<g>
					<g>
						<g>
							<rect x="196.604" y="366.205" fill="#FAFAFA" width="32.962" height="23.516"/>
						</g>
					</g>
				</g>
				<g>
					<g>
						<g>
							<rect x="56.697" y="365.352" fill="#F5F5F5" width="140.275" height="25.223"/>
						</g>
					</g>
				</g>
				<g>
					<g>
						<g>
							<path fill="#F5F5F5" d="M195.953,367.059h35.428c0.472,0,0.854-0.381,0.854-0.854l0,0c0-0.471-0.382-0.854-0.854-0.854
								h-35.428V367.059z"/>
						</g>
					</g>
				</g>
				<g>
					<g>
						<g>
							<path fill="#F5F5F5" d="M195.953,390.574h35.889c0.218,0,0.393-0.176,0.393-0.391v-0.924c0-0.217-0.175-0.393-0.393-0.393
								h-35.889V390.574z"/>
						</g>
					</g>
				</g>
				<g>
					<g>
						<g>
							<g>
								<ellipse fill="#E1E1E1" cx="213.269" cy="370.672" rx="16.296" ry="0.193"/>
							</g>
						</g>
					</g>
				</g>
				<g>
					<g>
						<g>
							<g>
								<ellipse fill="#E1E1E1" cx="213.269" cy="375.121" rx="16.296" ry="0.193"/>
							</g>
						</g>
					</g>
				</g>
				<g>
					<g>
						<g>
							<g>
								<ellipse fill="#E1E1E1" cx="213.269" cy="379.57" rx="16.296" ry="0.193"/>
							</g>
						</g>
					</g>
				</g>
				<g>
					<g>
						<g>
							<g>
								<ellipse fill="#E1E1E1" cx="213.269" cy="384.02" rx="16.296" ry="0.193"/>
							</g>
						</g>
					</g>
				</g>
			</g>
			<g>
				<g>
					<g>
						<g>
							<rect x="200.922" y="392.816" fill="#EBEBEB" width="33.643" height="63.746"/>
						</g>
					</g>
				</g>
				<g>
					<g>
						<g>
							<rect x="42.999" y="390.574" fill="#E1E1E1" width="157.923" height="69.119"/>
						</g>
					</g>
				</g>
				<g>
					<g>
						<g>
							<path fill="#E1E1E1" d="M237.198,459.693h-40.595v-4.482h40.595c1.237,0,2.241,1.004,2.241,2.242l0,0
								C239.439,458.689,238.436,459.693,237.198,459.693z"/>
						</g>
					</g>
				</g>
				<g>
					<g>
						<g>
							<path fill="#E1E1E1" d="M238.412,395.057h-41.809v-4.482h41.809c0.566,0,1.027,0.461,1.027,1.029v2.426
								C239.439,394.598,238.979,395.057,238.412,395.057z"/>
						</g>
					</g>
				</g>
				<g>
					<g>
						<g>
							<g>
								<ellipse fill="#E1E1E1" cx="217.743" cy="401.361" rx="16.821" ry="0.193"/>
							</g>
						</g>
					</g>
				</g>
				<g>
					<g>
						<g>
							<g>
								<ellipse fill="#E1E1E1" cx="217.743" cy="409.537" rx="16.821" ry="0.193"/>
							</g>
						</g>
					</g>
				</g>
				<g>
					<g>
						<g>
							<g>
								<ellipse fill="#E1E1E1" cx="217.743" cy="417.713" rx="16.821" ry="0.193"/>
							</g>
						</g>
					</g>
				</g>
				<g>
					<g>
						<g>
							<g>
								<ellipse fill="#E1E1E1" cx="217.743" cy="425.889" rx="16.821" ry="0.193"/>
							</g>
						</g>
					</g>
				</g>
				<g>
					<g>
						<g>
							<g>
								<ellipse fill="#E1E1E1" cx="217.743" cy="434.064" rx="16.821" ry="0.193"/>
							</g>
						</g>
					</g>
				</g>
				<g>
					<g>
						<g>
							<g>
								<ellipse fill="#E1E1E1" cx="217.743" cy="442.24" rx="16.821" ry="0.193"/>
							</g>
						</g>
					</g>
				</g>
				<g>
					<g>
						<g>
							<g>
								<ellipse fill="#E1E1E1" cx="217.743" cy="450.416" rx="16.821" ry="0.193"/>
							</g>
						</g>
					</g>
				</g>
			</g>
		</g>
	</g>
	<g>
		<g>
			<g>
				<g>
					<path fill="#F5F5F5" d="M194.551,86.475H81.534H51.275l23.34,16.842v33.135c0,3.822,3.098,6.92,6.919,6.92h113.017
						c3.821,0,6.919-3.098,6.919-6.92V93.393C201.47,89.572,198.372,86.475,194.551,86.475z"/>
				</g>
			</g>
		</g>
		<g>
			<g>
				<g>
					<g>
						<path fill="#E1E1E1" d="M188.574,109.893c0,0.137-21.609,0.25-48.259,0.25c-26.659,0-48.264-0.113-48.264-0.25
							c0-0.139,21.604-0.25,48.264-0.25C166.965,109.643,188.574,109.754,188.574,109.893z"/>
					</g>
				</g>
			</g>
		</g>
		<g>
			<g>
				<g>
					<g>
						<path fill="#E1E1E1" d="M188.574,122.613c0,0.139-21.609,0.25-48.259,0.25c-26.659,0-48.264-0.111-48.264-0.25
							s21.604-0.25,48.264-0.25C166.965,122.363,188.574,122.475,188.574,122.613z"/>
					</g>
				</g>
			</g>
		</g>
	</g>
	<g>
		<path fill="#1A2E35" d="M691.461,459.693c0,0.135-146.492,0.242-327.156,0.242c-180.728,0-327.188-0.107-327.188-0.242
			s146.46-0.244,327.188-0.244C544.969,459.449,691.461,459.559,691.461,459.693z"/>
	</g>
	<g>
		<g>
			<g>
				<path fill="#375A64" d="M629.982,412.02c0,0-24.76-28.498-34.104-56.996c-9.344-28.496-4.904-25.227-4.904-25.227
					s12.613,27.684,22.19,41.055s26.628,32.992,26.628,32.992L629.982,412.02z"/>
			</g>
			<g>
				<path fill="#375A64" d="M634.917,334.236c-0.799-1.391-2.925-0.668-2.685,0.92c1.508,10.008,4.771,33.498,4.644,48.734
					c-0.166,19.791,0.006,27.441,0.006,27.441h10.306c0,0-1.83-40.914-4.158-53.389
					C641.396,349.199,637.932,339.488,634.917,334.236z"/>
			</g>
			<g>
				<path fill="#375A64" d="M640.534,408.006c0,0,6.487-13.637,8.482-30.768c0.85-7.287-0.665-17.131-2.917-30.27
					c-1.091-6.365-1.338-11.207-1.303-14.566c0.026-2.537,3.375-3.365,4.617-1.152c1.242,2.219,4.842,9.801,5.756,14.553
					c2.496,12.973,5.322,19.459,3.161,31.768c-2.162,12.307-10.146,31.268-10.146,31.268L640.534,408.006z"/>
			</g>
			<g>
				<path fill="#375A64" d="M649.817,408.838c0,0,27.185-58.422,29.069-67.09c1.885-8.666,8.29-28.639,9.044-27.508
					s1.884,11.682-3.015,23.74c-4.899,12.059-25.816,72.637-25.816,72.637h-9.282"/>
			</g>
			<g>
				<g>
					<path fill="#1A2E35" d="M637.559,406.225c-0.013,0.014-0.274-0.166-0.762-0.525c-0.483-0.365-1.216-0.879-2.106-1.607
						c-1.81-1.422-4.349-3.584-7.306-6.449c-5.935-5.699-13.32-14.484-19.723-25.313c-6.417-10.826-10.731-21.414-13.463-29.162
						c-1.367-3.881-2.365-7.057-3.012-9.264c-0.333-1.102-0.561-1.965-0.721-2.549c-0.157-0.584-0.23-0.893-0.211-0.9
						c0.019-0.004,0.129,0.295,0.322,0.867c0.205,0.625,0.48,1.463,0.825,2.514c0.712,2.184,1.769,5.336,3.183,9.191
						c2.824,7.699,7.185,18.225,13.575,29.006c6.376,10.783,13.672,19.564,19.512,25.316c2.909,2.893,5.399,5.096,7.161,6.568
						c0.867,0.754,1.576,1.295,2.033,1.689C637.332,405.996,637.57,406.207,637.559,406.225z"/>
				</g>
			</g>
			<g>
				<g>
					<path fill="#1A2E35" d="M640.533,378.197c-0.041,0.002-0.125-0.609-0.244-1.715c-0.129-1.209-0.299-2.785-0.502-4.684
						c-0.43-3.951-1.102-9.402-2.063-15.391c-0.965-5.988-2.035-11.375-2.865-15.264c-0.402-1.865-0.735-3.414-0.992-4.604
						c-0.233-1.088-0.345-1.695-0.306-1.703c0.04-0.012,0.224,0.576,0.525,1.648c0.304,1.072,0.707,2.631,1.173,4.568
						c0.934,3.871,2.071,9.26,3.039,15.262c0.962,6.002,1.57,11.475,1.897,15.443c0.165,1.984,0.271,3.592,0.317,4.705
						C640.563,377.578,640.572,378.195,640.533,378.197z"/>
				</g>
			</g>
			<g>
				<g>
					<path fill="#1A2E35" d="M646.9,330.791c0.019-0.006,0.129,0.25,0.321,0.742c0.206,0.551,0.478,1.271,0.814,2.172
						c0.359,0.941,0.772,2.102,1.167,3.477c0.404,1.373,0.928,2.92,1.321,4.678c0.215,0.879,0.438,1.795,0.673,2.748
						c0.229,0.957,0.39,1.969,0.599,3.008c0.443,2.074,0.718,4.324,1.048,6.684c0.531,4.736,0.822,9.98,0.648,15.482
						c-0.221,5.502-0.885,10.713-1.756,15.4c-0.496,2.33-0.932,4.555-1.522,6.592c-0.283,1.021-0.517,2.02-0.813,2.957
						c-0.301,0.934-0.591,1.832-0.868,2.691c-0.519,1.727-1.151,3.232-1.652,4.57c-0.491,1.346-0.986,2.475-1.412,3.387
						c-0.401,0.873-0.724,1.572-0.969,2.105c-0.227,0.479-0.354,0.727-0.373,0.719c-0.019-0.01,0.074-0.273,0.267-0.766
						c0.219-0.545,0.508-1.258,0.867-2.146c0.393-0.924,0.856-2.063,1.316-3.412c0.471-1.348,1.075-2.855,1.566-4.584
						c0.264-0.857,0.54-1.756,0.828-2.691c0.284-0.936,0.506-1.932,0.776-2.951c0.568-2.031,0.983-4.25,1.464-6.57
						c0.837-4.668,1.482-9.85,1.701-15.322c0.172-5.471-0.1-10.684-0.6-15.4c-0.314-2.35-0.568-4.59-0.99-6.656
						c-0.196-1.037-0.348-2.045-0.563-3c-0.221-0.953-0.432-1.869-0.634-2.744c-0.366-1.76-0.861-3.307-1.234-4.684
						c-0.362-1.381-0.743-2.547-1.069-3.498c-0.295-0.912-0.53-1.645-0.711-2.203C646.955,331.068,646.881,330.799,646.9,330.791z"
						/>
				</g>
			</g>
			<g>
				<g>
					<path fill="#1A2E35" d="M687.619,315.414c0.01,0.002,0.002,0.09-0.021,0.262c-0.032,0.205-0.072,0.455-0.12,0.76
						c-0.12,0.664-0.271,1.65-0.536,2.908c-0.525,2.512-1.399,6.129-2.761,10.516c-1.354,4.391-3.21,9.535-5.413,15.189
						c-2.192,5.656-4.742,11.816-7.155,18.377c-2.45,6.549-4.339,12.941-6.112,18.74c-1.758,5.807-3.426,11.016-5.037,15.316
						c-1.597,4.309-3.133,7.701-4.293,9.99c-0.557,1.158-1.057,2.021-1.38,2.615c-0.152,0.268-0.277,0.488-0.381,0.668
						c-0.088,0.148-0.138,0.223-0.146,0.219c-0.009-0.006,0.022-0.088,0.095-0.246c0.089-0.188,0.197-0.416,0.329-0.695
						c0.288-0.611,0.757-1.488,1.28-2.658c1.095-2.314,2.568-5.719,4.11-10.033c1.558-4.309,3.182-9.518,4.911-15.33
						c1.744-5.805,3.622-12.219,6.079-18.785c2.419-6.576,4.984-12.732,7.202-18.373c2.229-5.637,4.12-10.756,5.52-15.117
						c1.407-4.359,2.34-7.949,2.932-10.443c0.299-1.244,0.485-2.223,0.642-2.881c0.07-0.299,0.129-0.545,0.177-0.746
						C687.582,315.498,687.609,315.412,687.619,315.414z"/>
				</g>
			</g>
			<g>
				<g>
					<path fill="#375A64" d="M603.791,302.51c-1.713-1.703-4.562,0.078-3.853,2.387c0.719,2.342,1.808,5.367,3.416,8.783
						c3.737,7.943,14.715,36.439,19.854,52.09c5.138,15.65,12.38,44.848,12.38,44.848l10.974-1.779c0,0-10.04-47.975-19.85-65.258
						C618.829,329.691,610.947,309.619,603.791,302.51z"/>
				</g>
				<g>
					<g>
						<path fill="#1A2E35" d="M626.211,375.557c0.039-0.012,0.238,0.455,0.566,1.316c0.324,0.861,0.767,2.117,1.265,3.684
							c1.011,3.131,2.248,7.504,3.494,12.359c1.242,4.861,2.277,9.281,3,12.486c0.329,1.516,0.605,2.789,0.825,3.803
							c0.183,0.9,0.266,1.402,0.227,1.412c-0.038,0.01-0.195-0.475-0.446-1.359c-0.267-1-0.604-2.26-1.005-3.76
							c-0.84-3.299-1.943-7.639-3.164-12.438c-1.244-4.852-2.415-9.232-3.323-12.385c-0.434-1.488-0.797-2.738-1.087-3.73
							C626.301,376.064,626.174,375.57,626.211,375.557z"/>
					</g>
				</g>
				<g>
					<g>
						<path fill="#1A2E35" d="M641.101,409.727c-0.01,0.002-0.03-0.098-0.062-0.293c-0.033-0.227-0.074-0.512-0.124-0.863
							c-0.116-0.758-0.218-1.885-0.45-3.324c-0.402-2.881-1.121-7.035-2.301-12.104c-1.171-5.068-2.88-11.031-5.136-17.531
							c-2.251-6.502-5.074-13.525-8.273-20.795c-6.456-14.525-12.905-27.406-17.144-36.932c-2.142-4.75-3.8-8.631-4.893-11.332
							c-0.557-1.348-0.955-2.406-1.233-3.121c-0.124-0.334-0.225-0.604-0.305-0.818c-0.065-0.188-0.095-0.283-0.086-0.287
							s0.057,0.086,0.141,0.264c0.095,0.211,0.213,0.473,0.357,0.797c0.323,0.744,0.769,1.773,1.335,3.078
							c1.154,2.672,2.868,6.523,5.057,11.25c4.33,9.475,10.836,22.32,17.301,36.867c3.205,7.279,6.02,14.326,8.248,20.855
							c2.235,6.525,3.908,12.518,5.032,17.613c1.13,5.094,1.789,9.27,2.124,12.166c0.197,1.445,0.264,2.578,0.342,3.342
							c0.027,0.354,0.05,0.641,0.066,0.869C641.11,409.625,641.111,409.727,641.101,409.727z"/>
					</g>
				</g>
				<g>
					<g>
						<path fill="#1A2E35" d="M646.563,408.838c-0.039,0.004-0.17-0.652-0.37-1.844c-0.219-1.289-0.506-2.99-0.854-5.045
							c-0.756-4.252-1.911-10.109-3.571-16.482c-1.643-6.381-3.494-12.055-4.919-16.131c-0.7-1.965-1.278-3.59-1.716-4.82
							c-0.411-1.137-0.621-1.771-0.584-1.787s0.317,0.592,0.794,1.705c0.473,1.113,1.134,2.736,1.892,4.762
							c1.526,4.049,3.446,9.725,5.095,16.125c1.666,6.396,2.761,12.285,3.415,16.561c0.313,2.143,0.552,3.877,0.673,5.082
							C646.548,408.164,646.603,408.832,646.563,408.838z"/>
					</g>
				</g>
			</g>
		</g>
		<g>
			<g>
				<rect x="626.252" y="407.262" fill="#FF735D" width="42.834" height="52.188"/>
			</g>
			<g opacity="0.3">
				<rect x="626.252" y="407.262" width="42.834" height="52.188"/>
			</g>
			<g>
				<rect x="617.42" y="407.262" fill="#FF735D" width="38.002" height="52.188"/>
			</g>
		</g>
	</g>
	<g>
		<g>
			<path fill="#375A64" d="M98.572,389.117c-7.297-4.674-17.41-4.762-24.51,0.201c-6.742,4.713-10.166,13.289-9.868,21.51
				c0.297,8.221,4.281,18.264,11.729,22.582l21.86-0.084c6.979-5.133,11.699-13.402,12.029-22.061
				C110.143,402.607,105.867,393.789,98.572,389.117z"/>
			<g>
				<g>
					<path fill="#1A2E35" d="M87.809,434.205c-0.048,0-0.096-0.67-0.137-1.881c-0.039-1.346-0.088-3.066-0.146-5.127
						c-0.11-4.33-0.281-10.307-0.569-16.906c-0.292-6.6-0.647-12.57-0.917-16.891c-0.123-2.061-0.225-3.777-0.305-5.121
						c-0.064-1.209-0.077-1.881-0.028-1.885c0.048-0.004,0.152,0.658,0.298,1.861c0.149,1.203,0.33,2.947,0.527,5.105
						c0.396,4.316,0.83,10.289,1.122,16.9c0.289,6.607,0.382,12.596,0.366,16.93c-0.007,2.166-0.034,3.92-0.076,5.133
						C87.902,433.535,87.857,434.205,87.809,434.205z"/>
				</g>
			</g>
			<g>
				<g>
					
						<ellipse transform="matrix(0.9966 0.082 -0.082 0.9966 33.7141 -3.8516)" fill="#1A2E35" cx="63.774" cy="408.751" rx="2.633" ry="0.35"/>
				</g>
			</g>
			<g>
				<g>
					
						<ellipse transform="matrix(0.9141 0.4055 -0.4055 0.9141 168.0063 8.196)" fill="#1A2E35" cx="64.658" cy="400.64" rx="2.348" ry="0.349"/>
				</g>
			</g>
			<g>
				<g>
					<path fill="#1A2E35" d="M70.601,396.117c-0.1,0.16-1.253-0.383-2.449-1.377c-1.2-0.99-1.948-2.02-1.81-2.148
						c0.144-0.135,1.092,0.652,2.254,1.611C69.755,395.164,70.705,395.951,70.601,396.117z"/>
				</g>
			</g>
			<g>
				<g>
					
						<ellipse transform="matrix(0.4042 0.9147 -0.9147 0.4042 399.4956 164.468)" fill="#1A2E35" cx="73.503" cy="388.884" rx="2.26" ry="0.349"/>
				</g>
			</g>
			<g>
				<g>
					<path fill="#1A2E35" d="M80.404,387.285c-0.172,0.082-0.767-0.836-1.16-2.109c-0.398-1.271-0.429-2.365-0.242-2.396
						c0.193-0.033,0.525,0.965,0.908,2.189C80.288,386.193,80.582,387.205,80.404,387.285z"/>
				</g>
			</g>
			<g>
				<g>
					
						<ellipse transform="matrix(0.333 -0.9429 0.9429 0.333 -302.9198 341.356)" fill="#1A2E35" cx="89.82" cy="384.79" rx="1.735" ry="0.349"/>
				</g>
			</g>
			<g>
				<g>
					
						<ellipse transform="matrix(0.7342 -0.679 0.679 0.7342 -237.4698 168.5467)" fill="#1A2E35" cx="96.51" cy="387.537" rx="1.769" ry="0.349"/>
				</g>
			</g>
			<g>
				<g>
					
						<ellipse transform="matrix(0.8279 -0.5609 0.5609 0.8279 -201.9385 125.0944)" fill="#1A2E35" cx="102.843" cy="391.559" rx="1.8" ry="0.349"/>
				</g>
			</g>
			<g>
				<g>
					
						<ellipse transform="matrix(0.9198 -0.3923 0.3923 0.9198 -147.4726 73.7718)" fill="#1A2E35" cx="106.788" cy="397.761" rx="2.367" ry="0.35"/>
				</g>
			</g>
			<g>
				<g>
					
						<ellipse transform="matrix(0.9925 -0.1226 0.1226 0.9925 -48.7035 16.3701)" fill="#1A2E35" cx="108.67" cy="403.945" rx="2.135" ry="0.349"/>
				</g>
			</g>
			<g>
				<g>
					
						<ellipse transform="matrix(0.9171 0.3987 -0.3987 0.9171 173.0499 -9.6261)" fill="#1A2E35" cx="109.667" cy="411.216" rx="2.261" ry="0.35"/>
				</g>
			</g>
			<g>
				<g>
					<path fill="#1A2E35" d="M110.904,419.354c-0.062,0.178-1.313-0.121-2.622-0.98c-1.313-0.854-2.088-1.881-1.951-2.008
						c0.142-0.139,1.093,0.619,2.333,1.424C109.898,418.602,110.976,419.168,110.904,419.354z"/>
				</g>
			</g>
			<g>
				<g>
					<path fill="#1A2E35" d="M107.136,425.943c-0.115,0.15-1.111-0.436-2.068-1.469c-0.96-1.031-1.47-2.066-1.313-2.172
						c0.162-0.109,0.905,0.711,1.824,1.697C106.493,424.988,107.258,425.789,107.136,425.943z"/>
				</g>
			</g>
			<g>
				<g>
					
						<ellipse transform="matrix(0.8869 -0.462 0.462 0.8869 -189.9501 80.224)" fill="#1A2E35" cx="68.854" cy="428.019" rx="2.818" ry="0.349"/>
				</g>
			</g>
			<g>
				<g>
					
						<ellipse transform="matrix(0.9108 -0.4128 0.4128 0.9108 -168.171 64.874)" fill="#1A2E35" cx="66.067" cy="421.673" rx="2.217" ry="0.349"/>
				</g>
			</g>
			<g>
				<g>
					
						<ellipse transform="matrix(0.9901 -0.1404 0.1404 0.9901 -57.7361 13.0047)" fill="#1A2E35" cx="63.327" cy="415.814" rx="2.38" ry="0.347"/>
				</g>
			</g>
			<g>
				<g>
					<path fill="#1A2E35" d="M73.564,412.57c0.056,0.18-0.951,0.65-2.296,0.799c-1.345,0.154-2.432-0.078-2.415-0.268
						c0.013-0.195,1.063-0.277,2.337-0.426C72.464,412.535,73.508,412.381,73.564,412.57z"/>
				</g>
			</g>
			<g>
				<g>
					<path fill="#1A2E35" d="M80.109,406.057c0.058,0.18-0.744,0.586-1.826,0.689c-1.082,0.109-1.948-0.133-1.926-0.32
						c0.018-0.195,0.852-0.271,1.856-0.373C79.221,405.957,80.054,405.867,80.109,406.057z"/>
				</g>
			</g>
			<g>
				<g>
					
						<ellipse transform="matrix(0.9451 0.3267 -0.3267 0.9451 135.1018 -4.0257)" fill="#1A2E35" cx="79.536" cy="400.207" rx="1.931" ry="0.349"/>
				</g>
			</g>
			<g>
				<g>
					<path fill="#1A2E35" d="M83.761,395.561c-0.134,0.135-0.73-0.26-1.155-0.998c-0.428-0.74-0.469-1.453-0.287-1.502
						c0.188-0.055,0.51,0.498,0.892,1.152C83.586,394.871,83.902,395.426,83.761,395.561z"/>
				</g>
			</g>
			<g>
				<g>
					<path fill="#1A2E35" d="M80.869,417.166c0.045,0.188-0.707,0.531-1.681,0.77c-0.562,0.137-1.075,0.209-1.41,0.207l-0.139-0.406
						c0.251-0.045,0.415-0.035,0.446,0.039c0.033,0.074-0.068,0.201-0.273,0.355l-0.137-0.406c0.298-0.156,0.785-0.33,1.348-0.467
						C79.996,417.02,80.822,416.979,80.869,417.166z"/>
				</g>
			</g>
			<g>
				<g>
					
						<ellipse transform="matrix(0.9308 -0.3654 0.3654 0.9308 -150.6267 58.7715)" fill="#1A2E35" cx="79.948" cy="427.309" rx="2.437" ry="0.349"/>
				</g>
			</g>
			<g>
				<g>
					
						<ellipse transform="matrix(0.9466 -0.3223 0.3223 0.9466 -132.3855 46.1911)" fill="#1A2E35" cx="73.28" cy="422.831" rx="1.627" ry="0.35"/>
				</g>
			</g>
			<g>
				<g>
					<path fill="#1A2E35" d="M75.387,403.477c-0.044,0.184-1.157,0.074-2.443-0.383c-1.288-0.455-2.222-1.07-2.14-1.24
						c0.084-0.178,1.123,0.141,2.372,0.582C74.425,402.879,75.434,403.287,75.387,403.477z"/>
				</g>
			</g>
			<g>
				<g>
					
						<ellipse transform="matrix(0.8349 -0.5504 0.5504 0.8349 -206.4 116.9296)" fill="#1A2E35" cx="91.691" cy="402.479" rx="1.907" ry="0.348"/>
				</g>
			</g>
			<g>
				<g>
					
						<ellipse transform="matrix(0.9791 -0.2034 0.2034 0.9791 -81.6612 27.4478)" fill="#1A2E35" cx="92.714" cy="411.039" rx="1.575" ry="0.349"/>
				</g>
			</g>
			<g>
				<g>
					
						<ellipse transform="matrix(0.9074 0.4202 -0.4202 0.9074 185.2498 -0.3482)" fill="#1A2E35" cx="93.415" cy="420.253" rx="2.173" ry="0.35"/>
				</g>
			</g>
			<g>
				<g>
					
						<ellipse transform="matrix(0.6345 0.7729 -0.7729 0.6345 365.9387 86.1431)" fill="#1A2E35" cx="91.888" cy="429.989" rx="1.742" ry="0.35"/>
				</g>
			</g>
			<g>
				<g>
					<path fill="#1A2E35" d="M92.504,394.588c0.118,0.148-0.288,0.662-0.986,1.01c-0.696,0.352-1.351,0.371-1.399,0.188
						c-0.053-0.188,0.458-0.492,1.087-0.811C91.835,394.66,92.386,394.434,92.504,394.588z"/>
				</g>
			</g>
			<g>
				<g>
					<path fill="#1A2E35" d="M101.273,403.959c0.064,0.178-0.748,0.623-1.856,0.775c-1.11,0.158-2.013-0.051-2-0.238
						c0.011-0.197,0.869-0.305,1.903-0.453C100.354,403.902,101.21,403.773,101.273,403.959z"/>
				</g>
			</g>
			<g>
				<g>
					<path fill="#1A2E35" d="M99.526,395.547c0.085,0.168-0.72,0.744-1.866,1.107c-1.145,0.369-2.134,0.369-2.162,0.182
						c-0.031-0.195,0.863-0.494,1.95-0.846C98.537,395.645,99.44,395.371,99.526,395.547z"/>
				</g>
			</g>
			<g>
				<g>
					<path fill="#1A2E35" d="M103.188,416.986c-0.003,0.188-1.38,0.311-3.042,0.006c-1.664-0.299-2.91-0.896-2.846-1.072
						c0.063-0.188,1.366,0.098,2.97,0.385C101.873,416.6,103.195,416.789,103.188,416.986z"/>
				</g>
			</g>
			<g>
				<g>
					<path fill="#1A2E35" d="M99.93,429.205c-0.115,0.15-1.131-0.447-2.143-1.467c-1.015-1.016-1.607-2.033-1.457-2.148
						c0.154-0.121,0.971,0.674,1.952,1.656C99.26,428.232,100.052,429.051,99.93,429.205z"/>
				</g>
			</g>
			<g>
				<g>
					<path fill="#1A2E35" d="M85.6,385.604c0.104,0.15-2.781,1.32-6.117,4.836c-3.334,3.436-6.772,9.508-7.619,16.842
						c-0.406,3.646-0.059,7.174,0.459,10.32c0.545,3.15,1.268,5.951,1.934,8.281c0.669,2.332,1.283,4.201,1.697,5.496
						s0.636,2.016,0.588,2.031c-0.044,0.016-0.35-0.672-0.845-1.941c-0.491-1.27-1.181-3.117-1.913-5.443
						c-0.73-2.324-1.508-5.131-2.095-8.313c-0.558-3.18-0.935-6.764-0.519-10.512c0.865-7.504,4.465-13.688,7.958-17.105
						c1.737-1.736,3.372-2.895,4.563-3.566c0.578-0.365,1.078-0.561,1.396-0.725C85.414,385.652,85.59,385.582,85.6,385.604z"/>
				</g>
			</g>
			<g>
				<g>
					<path fill="#1A2E35" d="M95.115,433.859c-0.15-0.076,1.568-2.723,3.138-7.494c1.614-4.713,2.95-11.693,1.875-19.271
						c-0.503-3.779-1.597-7.283-2.972-10.277c-1.429-2.951-3.268-5.369-5.068-7.057c-1.86-1.645-3.688-2.59-4.964-3.139
						c-1.29-0.537-2.063-0.664-2.052-0.723c0.003-0.021,0.198-0.01,0.568,0.045c0.369,0.068,0.909,0.189,1.581,0.426
						c1.333,0.48,3.228,1.369,5.193,3.02c1.913,1.709,3.813,4.121,5.321,7.152c1.438,3.043,2.568,6.604,3.082,10.455
						c1.096,7.723-0.348,14.807-2.101,19.529c-0.394,1.205-0.901,2.238-1.278,3.168c-0.449,0.9-0.82,1.684-1.16,2.303
						C95.568,433.221,95.158,433.883,95.115,433.859z"/>
				</g>
			</g>
		</g>
		<g>
			<polygon fill="#FF735D" points="68.086,432.209 106.552,432.209 106.789,439.908 68.086,439.908 			"/>
		</g>
		<g>
			<polygon fill="#FF735D" points="71.354,436.059 73.564,459.561 101.686,459.561 103.943,436.316 			"/>
		</g>
		<g>
			<g>
				<ellipse fill="#1A2E35" cx="87.442" cy="440" rx="19.347" ry="0.35"/>
			</g>
		</g>
		<g>
			<g>
				<path fill="#1A2E35" d="M102.879,447.16c0.039,0.021-0.221,0.563-0.822,1.467c-0.604,0.902-1.564,2.168-2.984,3.523l-0.178,0.17
					l-0.174-0.184c-1.853-1.943-4.397-4.326-7.539-6.6l0.426-0.018c-1.073,0.941-2.193,1.924-3.342,2.934
					c-1.365,1.188-2.69,2.342-3.951,3.439l-0.219,0.191l-0.219-0.186c-2.396-2.014-4.574-3.846-6.424-5.4l0.374-0.039
					c-1.326,1.617-2.44,2.979-3.322,4.053c-0.801,0.951-1.264,1.461-1.304,1.43c-0.042-0.033,0.343-0.605,1.072-1.609
					c0.834-1.113,1.887-2.521,3.141-4.197l0.16-0.215l0.214,0.174c1.876,1.521,4.087,3.313,6.519,5.285l-0.438,0.006
					c1.258-1.105,2.576-2.262,3.937-3.457c1.153-1.004,2.276-1.984,3.353-2.922l0.207-0.18l0.22,0.162
					c3.166,2.326,5.699,4.787,7.501,6.811l-0.352-0.014C101.589,449.195,102.77,447.076,102.879,447.16z"/>
			</g>
		</g>
	</g>
	<g>
		<g>
			<g>
				<g>
					<g>
						<g>
							<g>
								<g>
									<g>
										<g>
											<g>
												<path fill="#375A64" d="M565.068,453.109H157.891c-7.515,0-13.607-6.09-13.607-13.605V179.457
													c0-7.514,6.093-13.605,13.607-13.605h407.178c7.515,0,13.607,6.092,13.607,13.605v260.047
													C578.676,447.02,572.583,453.109,565.068,453.109z"/>
											</g>
										</g>
									</g>
								</g>
								<g>
									<g>
										<g>
											<g>
												<path fill="#375A64" d="M584.069,459.693H146.688c-9.182,0-16.625-7.443-16.625-16.625v-8.51h470.631v8.51
													C600.693,452.25,593.25,459.693,584.069,459.693z"/>
											</g>
										</g>
									</g>
								</g>
								<g>
									<g>
										<g>
											<g>
												<polygon fill="#1A2E35" points="318.657,431.865 324.497,441.154 406.676,441.154 412.099,431.865 												"/>
											</g>
										</g>
									</g>
								</g>
							</g>
							<g>
								<g>
									<g>
										<g>
											<path fill="#1A2E35" d="M574.943,431.863c0,0.156-96.415,0.283-215.32,0.283c-118.945,0-215.34-0.127-215.34-0.283
												c0-0.154,96.395-0.281,215.34-0.281C478.528,431.582,574.943,431.709,574.943,431.863z"/>
										</g>
									</g>
								</g>
							</g>
						</g>
					</g>
				</g>
			</g>
			<g>
				<g>
					<g>
						<g>
							<g>
								<g>
									<g>
										<g>
											<path fill="#EBEBEB" d="M561.479,424.27H159.78c-1.688,0-3.058-1.369-3.058-3.059V185.428
												c0-1.689,1.369-3.059,3.058-3.059h401.699c1.688,0,3.057,1.369,3.057,3.059v235.785
												C564.536,422.9,563.168,424.27,561.479,424.27z"/>
										</g>
									</g>
								</g>
							</g>
						</g>
						<g>
							<g>
								<g>
									<g>
										<g>
											<polygon fill="#FFFFFF" points="564.1,424.623 156.287,424.623 156.723,200.447 564.1,200.447 											"/>
										</g>
									</g>
								</g>
							</g>
						</g>
						<g>
							<g>
								<g>
									<g>
										<g>
											<circle fill="#1A2E35" cx="186.913" cy="191.711" r="3.257"/>
										</g>
									</g>
								</g>
							</g>
						</g>
						<g>
							<g>
								<g>
									<g>
										<g>
											<circle fill="#1A2E35" cx="167.174" cy="191.711" r="3.258"/>
										</g>
									</g>
								</g>
							</g>
						</g>
						<g>
							<g>
								<g>
									<g>
										<g>
											<circle fill="#1A2E35" cx="176.649" cy="191.711" r="3.257"/>
										</g>
									</g>
								</g>
							</g>
						</g>
					</g>
				</g>
			</g>
			<rect x="156.287" y="402.977" fill="#1A2E35" width="408.249" height="21.646"/>
			<g>
				<g>
					<path fill="#FFFFFF" d="M171.71,416.305v0.693h-3.251v-0.549l1.752-1.662c0.428-0.41,0.505-0.668,0.505-0.914
						c0-0.402-0.277-0.635-0.82-0.635c-0.428,0-0.787,0.143-1.033,0.459l-0.573-0.441c0.341-0.461,0.953-0.73,1.676-0.73
						c0.958,0,1.575,0.484,1.575,1.266c0,0.428-0.118,0.818-0.73,1.393l-1.178,1.121H171.71z"/>
					<path fill="#FFFFFF" d="M172.153,414.119c0-0.314,0.232-0.523,0.517-0.523c0.282,0,0.516,0.209,0.516,0.523
						c0,0.301-0.233,0.521-0.516,0.521C172.386,414.641,172.153,414.42,172.153,414.119z M172.153,416.52
						c0-0.316,0.232-0.523,0.517-0.523c0.282,0,0.516,0.207,0.516,0.523c0,0.303-0.233,0.523-0.516,0.523
						C172.386,417.043,172.153,416.822,172.153,416.52z"/>
					<path fill="#FFFFFF" d="M175.238,412.588v4.41h-0.818v-3.723h-0.934v-0.688H175.238z"/>
					<path fill="#FFFFFF" d="M180.043,415.996h-0.781v1.002h-0.793v-1.002h-2.42v-0.566l2.173-2.842h0.877l-2.049,2.715h1.443
						v-0.889h0.769v0.889h0.781V415.996z"/>
				</g>
				<g>
					<rect x="187.249" y="414.234" fill="#FFFFFF" width="334.617" height="1.523"/>
				</g>
				<g>
					<rect x="186.998" y="412.59" fill="#FF735D" width="104.568" height="4.068"/>
				</g>
				<g>
					<circle fill="#FF735D" cx="289.851" cy="414.996" r="5.091"/>
				</g>
				<g>
					<path fill="#FFFFFF" d="M530.294,414.947c0,0.877-0.712,1.432-1.612,1.432c-1.203,0-1.91-0.775-1.91-2.193
						c0-1.514,0.883-2.344,2.161-2.344c0.442,0,0.864,0.094,1.159,0.283l-0.302,0.617c-0.239-0.158-0.528-0.215-0.838-0.215
						c-0.832,0-1.354,0.518-1.354,1.52v0.008c0.265-0.311,0.687-0.461,1.178-0.461C529.646,413.594,530.294,414.123,530.294,414.947
						z M529.5,414.984c0-0.459-0.346-0.748-0.882-0.748c-0.529,0-0.895,0.32-0.895,0.756c0,0.416,0.327,0.742,0.914,0.742
						C529.147,415.734,529.5,415.445,529.5,414.984z"/>
					<path fill="#FFFFFF" d="M530.692,413.436c0-0.314,0.231-0.523,0.517-0.523c0.283,0,0.516,0.209,0.516,0.523
						c0,0.301-0.232,0.521-0.516,0.521C530.924,413.957,530.692,413.736,530.692,413.436z M530.692,415.836
						c0-0.314,0.231-0.521,0.517-0.521c0.283,0,0.516,0.207,0.516,0.521c0,0.303-0.232,0.523-0.516,0.523
						C530.924,416.359,530.692,416.139,530.692,415.836z"/>
					<path fill="#FFFFFF" d="M532.252,414.109c0-1.449,0.794-2.268,1.84-2.268c1.053,0,1.847,0.818,1.847,2.268
						s-0.794,2.27-1.847,2.27C533.046,416.379,532.252,415.559,532.252,414.109z M535.113,414.109c0-1.064-0.416-1.557-1.021-1.557
						c-0.598,0-1.014,0.492-1.014,1.557c0,1.066,0.416,1.557,1.014,1.557C534.697,415.666,535.113,415.176,535.113,414.109z"/>
					<path fill="#FFFFFF" d="M536.487,414.109c0-1.449,0.794-2.268,1.84-2.268c1.053,0,1.847,0.818,1.847,2.268
						s-0.794,2.27-1.847,2.27C537.281,416.379,536.487,415.559,536.487,414.109z M539.348,414.109c0-1.064-0.414-1.557-1.021-1.557
						c-0.599,0-1.015,0.492-1.015,1.557c0,1.066,0.416,1.557,1.015,1.557C538.934,415.666,539.348,415.176,539.348,414.109z"/>
				</g>
				<g>
					<polygon fill="#FFFFFF" points="547.299,413.836 545.773,413.836 545.773,409.438 550.163,409.438 550.163,410.963 
						547.299,410.963 					"/>
				</g>
				<g>
					<polygon fill="#FFFFFF" points="550.166,419.576 545.768,419.576 545.768,415.188 547.294,415.188 547.294,418.051 
						550.166,418.051 					"/>
				</g>
				<g>
					<polygon fill="#FFFFFF" points="557.171,419.576 552.781,419.576 552.781,418.051 555.645,418.051 555.645,415.176 
						557.171,415.176 					"/>
				</g>
				<g>
					<polygon fill="#FFFFFF" points="557.175,413.826 555.649,413.826 555.649,410.963 552.777,410.963 552.777,409.438 
						557.175,409.438 					"/>
				</g>
			</g>
		</g>
		<g>
			<g>
				<polygon fill="#EBEBEB" points="212.211,213.777 188.174,213.777 176.155,234.594 188.174,255.41 212.211,255.41 
					224.229,234.594 				"/>
				<g>
					<g>
						<g>
							<path fill="#1A2E35" d="M190.136,238.668c-1.074-1.189-2.158-2.391-2.94-3.789c-0.783-1.398-1.25-3.029-0.991-4.611
								c0.151-0.924,0.545-1.805,0.607-2.74c0.086-1.287-0.456-2.629,0.001-3.836c0.713-1.885,3.25-2.176,4.788-3.479
								c1.198-1.014,1.78-2.66,3.099-3.512c1.151-0.746,2.63-0.729,3.987-0.537c1.358,0.193,2.724,0.535,4.083,0.352
								c0.969-0.129,1.881-0.521,2.829-0.758c0.949-0.234,2.008-0.295,2.854,0.195c0.845,0.492,1.319,1.691,0.765,2.496
								c1.575-0.727,3.575,0.502,4.006,2.18c0.431,1.682-0.432,3.496-1.766,4.604s-3.06,1.621-4.764,1.943
								c-4.825,0.91-10.058,0.396-14.215-2.215"/>
						</g>
						<g>
							<g>
								<g>
									<g>
										<g>
											<g>
												<g>
													<path fill="#FFBF9D" d="M212.422,243.807c-0.162-2.98-0.996-9.088-1.815-14.607c-0.88-5.938-6.171-10.203-12.159-9.803
														l-0.595,0.039c-6.391,0.805-9.276,6.68-8.297,13.045l1.876,22.93h15.594c0,0-0.368-4.021-0.37-4.063
														C206.655,251.348,212.758,249.977,212.422,243.807z"/>
													<g>
														<g>
															<g>
																<g>
																	<g>
																		<g>
																			<g>
																				<g>
																					<g>
																						<g>
																							<path fill="#FF9A6C" d="M206.659,251.258c0,0-3.875,0.578-8.19-1.746c0,0,2.196,4.311,8.313,3.344
																								L206.659,251.258z"/>
																						</g>
																					</g>
																				</g>
																			</g>
																		</g>
																	</g>
																</g>
															</g>
														</g>
													</g>
												</g>
											</g>
										</g>
										<g>
											<g>
												<g>
													<g>
														<g>
															<g>
																<g>
																	<g>
																		<g>
																			<g>
																				<g>
																					<g>
																						<g>
																							<g>
																								<g>
																									<g>
																										<path fill="#1A2E35" d="M208.622,234.488c0.048,0.465-0.307,0.887-0.79,0.945
																											c-0.482,0.059-0.912-0.27-0.961-0.732c-0.047-0.465,0.306-0.889,0.789-0.947
																											S208.574,234.023,208.622,234.488z"/>
																									</g>
																								</g>
																							</g>
																						</g>
																					</g>
																				</g>
																			</g>
																		</g>
																	</g>
																</g>
																<g>
																	<g>
																		<g>
																			<g>
																				<g>
																					<g>
																						<g>
																							<g>
																								<g>
																									<g>
																										<g>
																											<path fill="#1A2E35" d="M209.482,232.301c-0.102,0.121-0.801-0.328-1.749-0.262
																												c-0.946,0.053-1.609,0.586-1.72,0.479c-0.055-0.049,0.043-0.264,0.332-0.504
																												c0.282-0.24,0.776-0.488,1.367-0.523c0.59-0.037,1.101,0.146,1.401,0.35
																												C209.421,232.045,209.533,232.244,209.482,232.301z"/>
																										</g>
																									</g>
																								</g>
																							</g>
																						</g>
																					</g>
																				</g>
																			</g>
																		</g>
																	</g>
																</g>
															</g>
															<g>
																<g>
																	<g>
																		<g>
																			<g>
																				<g>
																					<g>
																						<g>
																							<g>
																								<g>
																									<g>
																										<path fill="#1A2E35" d="M199.671,235.127c0.048,0.465-0.306,0.887-0.789,0.945
																											c-0.483,0.061-0.914-0.268-0.962-0.732c-0.047-0.465,0.307-0.887,0.789-0.945
																											C199.193,234.336,199.623,234.664,199.671,235.127z"/>
																									</g>
																								</g>
																							</g>
																						</g>
																					</g>
																				</g>
																			</g>
																		</g>
																	</g>
																</g>
																<g>
																	<g>
																		<g>
																			<g>
																				<g>
																					<g>
																						<g>
																							<g>
																								<g>
																									<g>
																										<g>
																											<path fill="#1A2E35" d="M200.181,233.102c-0.102,0.121-0.803-0.328-1.749-0.262
																												c-0.947,0.051-1.609,0.586-1.721,0.477c-0.053-0.047,0.043-0.264,0.332-0.504
																												c0.282-0.238,0.777-0.486,1.368-0.523c0.589-0.037,1.101,0.148,1.401,0.352
																												C200.117,232.844,200.23,233.045,200.181,233.102z"/>
																										</g>
																									</g>
																								</g>
																							</g>
																						</g>
																					</g>
																				</g>
																			</g>
																		</g>
																	</g>
																</g>
															</g>
															<g>
																<g>
																	<g>
																		<g>
																			<g>
																				<g>
																					<g>
																						<g>
																							<g>
																								<g>
																									<g>
																										<path fill="#1A2E35" d="M204.09,239.896c-0.009-0.053,0.574-0.195,1.52-0.379
																											c0.241-0.043,0.467-0.105,0.497-0.273c0.044-0.18-0.074-0.434-0.21-0.707
																											c-0.267-0.568-0.546-1.168-0.84-1.795c-1.169-2.557-2.031-4.664-1.928-4.711
																											c0.102-0.045,1.135,1.988,2.303,4.545c0.283,0.631,0.553,1.232,0.81,1.809
																											c0.11,0.268,0.288,0.57,0.189,0.941c-0.053,0.184-0.223,0.328-0.374,0.379
																											c-0.152,0.059-0.288,0.07-0.406,0.086C204.692,239.906,204.098,239.951,204.09,239.896z"/>
																									</g>
																								</g>
																							</g>
																						</g>
																					</g>
																				</g>
																			</g>
																		</g>
																	</g>
																</g>
															</g>
														</g>
													</g>
												</g>
												<g>
													<g>
														<g>
															<g>
																<g>
																	<g>
																		<g>
																			<g>
																				<g>
																					<g>
																						<path fill="#1A2E35" d="M200.177,229.369c-0.076,0.266-1.03,0.207-2.132,0.414
																							c-1.107,0.188-1.982,0.572-2.146,0.352c-0.072-0.105,0.068-0.359,0.414-0.633
																							c0.342-0.273,0.9-0.549,1.563-0.668c0.662-0.117,1.28-0.051,1.696,0.086
																							C199.99,229.057,200.21,229.246,200.177,229.369z"/>
																					</g>
																				</g>
																			</g>
																		</g>
																	</g>
																</g>
															</g>
														</g>
													</g>
												</g>
												<g>
													<g>
														<g>
															<g>
																<g>
																	<g>
																		<g>
																			<g>
																				<g>
																					<g>
																						<path fill="#1A2E35" d="M208.95,229.582c-0.151,0.227-0.819,0.047-1.605,0.088
																							c-0.786,0.016-1.439,0.242-1.607,0.027c-0.074-0.105,0.016-0.328,0.292-0.551
																							c0.273-0.223,0.741-0.42,1.281-0.441c0.541-0.018,1.021,0.146,1.31,0.348
																							C208.912,229.256,209.018,229.473,208.95,229.582z"/>
																					</g>
																				</g>
																			</g>
																		</g>
																	</g>
																</g>
															</g>
														</g>
													</g>
												</g>
											</g>
										</g>
									</g>
								</g>
							</g>
							<g>
								<g>
									<g>
										<g>
											<g>
												<g>
													<g>
														<g>
															<g>
																<g>
																	<g>
																		<path fill="#FFBF9D" d="M190.365,237.014c-0.109-0.039-4.321-0.971-3.903,3.236
																			c0.415,4.205,4.975,2.836,4.97,2.713C191.427,242.842,190.365,237.014,190.365,237.014z"/>
																	</g>
																</g>
															</g>
														</g>
													</g>
												</g>
											</g>
										</g>
									</g>
								</g>
								<g>
									<g>
										<g>
											<g>
												<g>
													<g>
														<g>
															<g>
																<g>
																	<g>
																		<g>
																			<path fill="#FF9A6C" d="M189.566,241.582c-0.02-0.012-0.067,0.059-0.186,0.127
																				c-0.115,0.068-0.319,0.127-0.547,0.066c-0.461-0.119-0.904-0.787-1-1.543c-0.048-0.383-0.004-0.756,0.102-1.07
																				c0.098-0.32,0.275-0.555,0.495-0.617c0.218-0.074,0.39,0.045,0.452,0.158c0.069,0.113,0.05,0.199,0.072,0.203
																				c0.014,0.01,0.084-0.078,0.033-0.248c-0.025-0.082-0.085-0.178-0.191-0.248c-0.109-0.072-0.263-0.1-0.416-0.066
																				c-0.323,0.055-0.585,0.381-0.701,0.727c-0.135,0.35-0.193,0.77-0.139,1.199c0.111,0.844,0.625,1.594,1.25,1.711
																				c0.303,0.047,0.541-0.066,0.659-0.18C189.57,241.684,189.583,241.588,189.566,241.582z"/>
																		</g>
																	</g>
																</g>
															</g>
														</g>
													</g>
												</g>
											</g>
										</g>
									</g>
								</g>
							</g>
							<g>
								<g>
									<g>
										<path fill="#1A2E35" d="M210.295,223.439c-0.288,1.674-3.686,3.209-6.5,3.127c-2.596-0.076-3.878-1.365-5.764-2.279
											c-1.194-0.58-1.194-0.58-2.814-0.316c-1.311,0.213-1.988,1.758-2.724,2.863c1.399,3.053,0.833,6.604,0.24,9.912
											c-0.065,0.365-0.147,0.758-0.427,1.006c-0.473,0.414-1.238,0.166-1.704-0.26c-0.744-0.682-1.083-1.693-1.328-2.674
											c-0.556-2.23-0.769-4.566-0.415-6.838c0.352-2.273,1.293-4.48,2.846-6.176c1.939-2.121,4.775-3.342,7.646-3.49
											s5.752,0.74,8.157,2.314C208.622,221.361,209.666,222.264,210.295,223.439"/>
									</g>
								</g>
							</g>
						</g>
					</g>
					<path fill="#FF9A6C" d="M204.709,242.027c-0.715-0.332-1.429-0.666-2.144-1c-0.124-0.057-0.256-0.115-0.391-0.098
						c-0.151,0.02-0.272,0.135-0.37,0.252c-0.498,0.602-0.623,1.512-0.237,2.191c0.385,0.68,1.29,1.039,2.012,0.74
						c0.759-0.316,1.13-1.199,1.188-2.018L204.709,242.027z"/>
					<g>
						<path fill="#1A2E35" d="M203.646,244.264c0.033,0.043-0.448,0.346-1.258,0.113c-0.389-0.117-0.836-0.418-1.111-0.904
							c-0.281-0.473-0.385-1.148-0.141-1.758c0.115-0.301,0.297-0.568,0.518-0.779c0.113-0.105,0.229-0.191,0.365-0.273
							c0.136-0.1,0.427-0.115,0.565-0.033c0.49,0.275,0.82,0.506,1.149,0.719c0.628,0.416,1,0.703,0.966,0.76
							c-0.033,0.059-0.467-0.123-1.139-0.463c-0.391-0.205-0.771-0.402-1.145-0.6c-0.089-0.023-0.08-0.023-0.166,0.021
							c-0.085,0.055-0.184,0.131-0.265,0.213c-0.168,0.166-0.307,0.375-0.396,0.609c-0.187,0.471-0.123,0.979,0.08,1.369
							c0.201,0.396,0.525,0.658,0.839,0.797C203.153,244.33,203.633,244.186,203.646,244.264z"/>
					</g>
					<g>
						<path fill="#1A2E35" d="M202.97,234.594c-0.047,0.002-0.042-0.391-0.229-1.049c-0.186-0.646-0.635-1.588-1.61-2.307
							c-0.942-0.721-2.485-1.119-3.974-0.559c-1.475,0.512-2.746,2.082-2.729,3.914c-0.017,1.83,1.254,3.402,2.729,3.916
							c1.488,0.559,3.031,0.16,3.974-0.563c0.976-0.717,1.425-1.658,1.61-2.303C202.928,234.984,202.923,234.592,202.97,234.594
							c0.017,0,0.028,0.096,0.035,0.283c0.009,0.186-0.009,0.465-0.08,0.813c-0.138,0.688-0.559,1.719-1.586,2.531
							c-0.99,0.816-2.676,1.305-4.335,0.709c-1.645-0.541-3.082-2.287-3.063-4.336c-0.019-2.049,1.419-3.795,3.063-4.336
							c1.659-0.596,3.344-0.107,4.335,0.707c1.026,0.814,1.448,1.846,1.586,2.533c0.071,0.35,0.089,0.627,0.08,0.813
							C202.998,234.498,202.986,234.594,202.97,234.594z"/>
					</g>
					<g>
						<path fill="#1A2E35" d="M213.46,234.182c-0.046,0.002-0.042-0.381-0.226-1.023c-0.182-0.627-0.619-1.543-1.569-2.242
							c-0.918-0.701-2.419-1.088-3.867-0.545c-1.436,0.5-2.671,2.027-2.655,3.811c-0.016,1.781,1.22,3.311,2.655,3.811
							c1.448,0.543,2.949,0.156,3.868-0.545c0.949-0.699,1.387-1.615,1.568-2.242C213.418,234.563,213.414,234.18,213.46,234.182
							c0.017,0,0.029,0.094,0.034,0.277c0.012,0.18-0.005,0.451-0.076,0.791c-0.131,0.67-0.543,1.676-1.543,2.471
							c-0.967,0.797-2.611,1.271-4.229,0.691c-1.604-0.527-3.009-2.232-2.989-4.23c-0.019-2,1.385-3.703,2.989-4.232
							c1.618-0.578,3.263-0.104,4.229,0.693c1.001,0.795,1.412,1.799,1.544,2.471c0.071,0.34,0.088,0.611,0.076,0.791
							C213.489,234.088,213.477,234.182,213.46,234.182z"/>
					</g>
					<g>
						<path fill="#1A2E35" d="M204.899,233.213c-0.096,0.088-0.512-0.18-1.073-0.162c-0.563,0-0.966,0.285-1.066,0.201
							c-0.128-0.066,0.264-0.674,1.058-0.688C204.61,232.553,205.023,233.139,204.899,233.213z"/>
					</g>
					<g>
						
							<ellipse transform="matrix(0.8013 -0.5982 0.5982 0.8013 -102.6062 161.9303)" fill="#1A2E35" cx="192.481" cy="235.438" rx="2.455" ry="0.244"/>
					</g>
				</g>
			</g>
			<g>
				<path fill="#1A2E35" d="M281.145,234.381c0,0.135-10.805,0.244-24.132,0.244c-13.331,0-24.134-0.109-24.134-0.244
					c0-0.133,10.803-0.242,24.134-0.242C270.34,234.139,281.145,234.248,281.145,234.381z"/>
			</g>
			<g>
				<ellipse fill="#1A2E35" cx="246.009" cy="239.434" rx="12.814" ry="0.242"/>
			</g>
		</g>
	</g>
	<g>
		<path fill="#FF735D" d="M425.745,271.701c0,0,12.829,6.252,17.334,22.391c4.505,16.141,18.303,58.172,18.303,58.172
			s7.884,9.275,8.729,16.145s-0.845,23.482-3.378,26.58c-2.534,3.098-6.148,2.584-6.148,2.584l-33.186-3.148l-13.068-87.498
			L425.745,271.701z"/>
		<path fill="#FF735D" d="M316.005,270.174c0,0-23.729,7.441-29.642,13.918l19.429,90.387l-0.311,28.52h112.497
			c0-1.408,1.01-94.689,1.01-94.689l6.757-36.607l-39.983-7.039l-7.885-6.193l-44.49,2.252l-6.757,6.758L316.005,270.174z"/>
		<g opacity="0.3">
			<path d="M325.017,348.59c-0.347-0.768-0.841-1.596-1.665-1.766c-1.355-0.281-2.262,1.322-2.723,2.627
				c-3.655,10.346-8.489,19.863-14.778,28.855l-0.288,13.877c6.559-5.52,13.024-11.43,17.205-18.912
				C326.948,365.787,328.547,356.4,325.017,348.59z"/>
		</g>
		<path fill="#FF735D" d="M286.363,284.092c0,0-7.818,10.658-11.065,17.615c-3.247,6.959-30.147,65.398-31.771,71.428
			c-1.624,6.029-5.798,25.047,6.492,29.453h25.278l25.371-51.305l1.298-59.547L286.363,284.092z"/>
		<g>
			<path fill="#1A2E35" d="M276.916,365.527c-0.033,0.037-0.563-0.498-1.728-1.16c-1.161-0.656-2.966-1.41-5.306-1.922
				c-1.167-0.256-2.465-0.455-3.867-0.543c-1.4-0.088-2.906-0.063-4.434,0.289c-3.066,0.684-6.113,2.621-8.51,5.342
				c-2.434,2.719-3.936,5.93-4.818,8.959c-0.896,3.035-1.279,5.883-1.52,8.27c-0.237,2.391-0.326,4.336-0.408,5.68
				c-0.04,0.629-0.072,1.143-0.098,1.549c-0.027,0.354-0.049,0.539-0.066,0.539c-0.016,0-0.027-0.188-0.031-0.541
				c0.002-0.408,0.003-0.922,0.006-1.553c0.024-1.348,0.062-3.299,0.255-5.705c0.198-2.402,0.548-5.277,1.433-8.365
				c0.869-3.076,2.395-6.375,4.885-9.154c2.452-2.785,5.598-4.773,8.775-5.457c1.585-0.352,3.142-0.361,4.559-0.254
				c1.425,0.107,2.738,0.33,3.917,0.611c2.362,0.561,4.175,1.375,5.325,2.094c0.574,0.363,0.99,0.689,1.254,0.93
				C276.8,365.381,276.928,365.516,276.916,365.527z"/>
		</g>
		<g>
			<path fill="#1A2E35" d="M264.93,355.313c-0.003-0.033,0.299-0.08,0.85-0.137c0.551-0.068,1.354-0.084,2.346-0.033
				c0.991,0.045,2.166,0.213,3.447,0.51c1.273,0.32,2.65,0.783,4.025,1.428c1.368,0.662,2.594,1.443,3.645,2.23
				c1.036,0.809,1.907,1.615,2.565,2.359c0.664,0.738,1.156,1.373,1.45,1.842c0.304,0.465,0.457,0.729,0.429,0.746
				c-0.075,0.053-0.759-0.959-2.128-2.352c-0.678-0.699-1.557-1.465-2.586-2.236c-1.044-0.754-2.247-1.504-3.584-2.15
				c-1.344-0.631-2.685-1.096-3.926-1.432c-1.248-0.314-2.393-0.516-3.365-0.602C266.154,355.299,264.936,355.404,264.93,355.313z"
				/>
		</g>
		<g>
			<path fill="#1A2E35" d="M287.784,352.5c-0.006,0.033-0.424,0-1.17-0.09c-0.745-0.096-1.828-0.203-3.166-0.303
				c-2.675-0.203-6.394-0.252-10.457,0.23c-4.064,0.49-7.667,1.414-10.218,2.244c-1.277,0.41-2.304,0.771-3.006,1.041
				c-0.704,0.262-1.102,0.393-1.115,0.361c-0.014-0.029,0.357-0.219,1.044-0.537c0.683-0.324,1.694-0.736,2.966-1.193
				c2.54-0.916,6.167-1.904,10.271-2.398c4.104-0.486,7.861-0.383,10.545-0.092c1.344,0.145,2.426,0.307,3.165,0.461
				C287.385,352.371,287.789,352.467,287.784,352.5z"/>
		</g>
		<g>
			<path fill="#1A2E35" d="M359.783,302.57c-0.011,0.008-0.099-0.098-0.258-0.305c-0.18-0.24-0.408-0.545-0.688-0.924
				c-0.62-0.857-1.475-2.043-2.542-3.52c-2.182-3.08-5.226-7.373-8.804-12.424l0.392-0.055c-1.362,4-2.865,8.412-4.447,13.057
				l-0.1,0.295l-0.256-0.164c-0.164-0.107-0.344-0.223-0.523-0.338c-2.092-1.326-3.938-2.92-5.505-4.648
				c-1.56-1.734-2.854-3.586-3.929-5.434c-2.149-3.705-3.445-7.359-4.325-10.455c-0.875-3.105-1.331-5.676-1.638-7.447
				c-0.146-0.848-0.264-1.525-0.354-2.037c-0.042-0.232-0.09-0.402-0.119-0.52c-0.043-0.107-0.065-0.168-0.058-0.174
				c0.102-0.043,0.378,0.936,0.717,2.697c0.363,1.758,0.87,4.311,1.782,7.385c0.916,3.064,2.236,6.678,4.381,10.326
				c1.072,1.816,2.356,3.637,3.896,5.34c1.546,1.693,3.359,3.254,5.411,4.557c0.177,0.113,0.353,0.227,0.516,0.33l-0.356,0.131
				c1.597-4.641,3.112-9.049,4.486-13.045l0.144-0.416l0.25,0.361c3.52,5.09,6.514,9.42,8.658,12.523
				c1.025,1.508,1.845,2.717,2.439,3.592c0.258,0.395,0.467,0.713,0.633,0.965C359.725,302.445,359.793,302.564,359.783,302.57z"/>
		</g>
		<g opacity="0.3">
			<path d="M389.07,345.719c-1.041,10.449,1.266,21.209,6.5,30.313c5.235,9.104,12.904,17.217,22.461,21.572
				c0.309-9.275-0.137-20.203,0.172-29.479L389.07,345.719z"/>
		</g>
		<g>
			<path fill="#FFBF9D" d="M388.013,333.506c0,0-4.087,1.135-1.022,9.506c3.065,8.373,4.087,7.865,6.131,15.697
				c2.043,7.832,4.426,14.979,8.001,19.406c3.575,4.426,16.856,13.449,16.856,13.449l11.918-11.236c0,0-1.965-8.375-1.493-14.063
				s1.664-19.648,1.493-22.033c-0.17-2.383-2.724-8.172-2.724-8.172v-3.959l-6.13-18.857c0,0-3.405-1.531-4.598,3.916l-2.043-5.781
				c0,0-3.234-0.518-4.086,6.123c-0.851,6.641,0.681,15.834,0.681,15.834l-1.702,11.578l-2.554,7.832l-2.213,0.34
				c0,0-3.332-0.91-5.157-7.18C397.547,339.637,392.609,332.145,388.013,333.506z"/>
			<g>
				<path fill="#FF9A6C" d="M425.906,363.121c-0.014,0-0.031-0.146-0.055-0.43c-0.023-0.324-0.052-0.736-0.087-1.248
					c-0.062-1.141-0.146-2.721-0.252-4.688c-0.184-4.066-0.438-9.723-0.736-16.328l0.054,0.139
					c-0.547-0.656-1.525-0.852-2.412-0.629c-0.902,0.217-1.71,0.779-2.209,1.619c-1.041,1.676-1.099,3.857-1.425,5.965
					c-0.646,4.771-1.261,9.316-1.822,13.457c-0.284,2.068-0.583,4.037-0.986,5.859c-0.392,1.824-0.942,3.484-1.478,4.967
					c-0.527,1.486-0.993,2.832-1.281,4.043c-0.292,1.209-0.408,2.279-0.385,3.152c0.035,1.76,0.546,2.652,0.471,2.67
					c-0.016,0.008-0.113-0.217-0.286-0.652c-0.14-0.443-0.338-1.117-0.375-2.01c-0.052-0.891,0.04-1.988,0.31-3.221
					c0.268-1.236,0.716-2.602,1.223-4.096c0.514-1.492,1.036-3.129,1.408-4.939c0.382-1.807,0.665-3.766,0.936-5.834
					c0.549-4.143,1.152-8.688,1.785-13.461c0.149-1.064,0.265-2.115,0.451-3.164c0.188-1.041,0.478-2.088,1.051-2.992
					c0.544-0.918,1.496-1.592,2.506-1.82c0.996-0.25,2.188-0.033,2.867,0.791l0.051,0.063l0.003,0.076
					c0.228,6.607,0.422,12.268,0.562,16.334c0.051,1.971,0.092,3.551,0.121,4.695c0.006,0.512,0.01,0.924,0.013,1.25
					C425.926,362.973,425.92,363.121,425.906,363.121z"/>
			</g>
			<g>
				<path fill="#FF9A6C" d="M419.391,341.666c-0.029,0.012-0.219-0.363-0.503-1.066c-0.279-0.703-0.651-1.738-0.998-3.051
					c-0.348-1.313-0.671-2.902-0.855-4.691c-0.091-0.895-0.156-1.85-0.052-2.844c0.103-0.986,0.396-2.035,1.028-2.92
					c0.538-0.768,1.307-1.379,2.18-1.635l0.183-0.055l0.094,0.166c1.726,3.045,3.225,5.732,4.279,7.666
					c0.484,0.906,0.891,1.668,1.221,2.285c0.278,0.541,0.418,0.844,0.392,0.857c-0.025,0.016-0.216-0.258-0.539-0.773
					c-0.364-0.598-0.813-1.336-1.346-2.213c-1.128-1.893-2.68-4.549-4.423-7.586l0.275,0.111c-0.751,0.225-1.43,0.76-1.918,1.457
					c-0.573,0.801-0.848,1.754-0.952,2.691c-0.105,0.939-0.055,1.867,0.024,2.748c0.158,1.766,0.441,3.342,0.743,4.65
					c0.3,1.311,0.62,2.352,0.843,3.072C419.293,341.256,419.424,341.652,419.391,341.666z"/>
			</g>
			<g>
				<path fill="#FF9A6C" d="M416.541,343.197c-0.033,0.002-0.07-0.385-0.109-1.084c-0.033-0.803-0.073-1.795-0.121-2.965
					c-0.08-2.502-0.158-5.959-0.213-9.779c-0.028-3.816-0.178-7.285,0.151-9.801c0.159-1.252,0.409-2.248,0.638-2.916
					c0.228-0.668,0.414-1.014,0.438-1.002c0.085,0.027-0.52,1.473-0.733,3.955c-0.237,2.475-0.036,5.936-0.007,9.756
					c0.055,3.82,0.078,7.277,0.07,9.783c-0.014,1.172-0.025,2.162-0.034,2.965C416.601,342.811,416.575,343.197,416.541,343.197z"/>
			</g>
			<g>
				<path fill="#FF9A6C" d="M406.464,374.594c-0.069-0.057,0.677-0.936,1.599-2.527c0.467-0.791,0.941-1.779,1.387-2.906
					c0.424-1.135,0.806-2.416,1.063-3.791c0.24-1.379,0.33-2.711,0.33-3.924c-0.022-1.211-0.122-2.303-0.282-3.209
					c-0.308-1.813-0.7-2.895-0.614-2.926c0.031-0.01,0.15,0.252,0.339,0.738c0.198,0.482,0.414,1.211,0.612,2.125
					c0.207,0.912,0.346,2.023,0.394,3.264c0.025,1.238-0.053,2.605-0.299,4.018c-0.263,1.41-0.668,2.717-1.125,3.869
					c-0.479,1.145-0.996,2.137-1.51,2.92c-0.506,0.787-0.962,1.393-1.317,1.777C406.691,374.412,406.489,374.615,406.464,374.594z"
					/>
			</g>
			<path fill="#FFBF9D" d="M427.386,368.736l10.343,3.59c0,0,9.875-5.107,16.686,0s12.727,18.57,10.854,24.018
				c0,0-4.7,5.803-8.275,6.654c-3.576,0.852-17.476-2.516-23.259-3.732c-5.799-1.221-15.755-7.701-15.755-7.701L427.386,368.736z"/>
			<g>
				<path fill="#FF9A6C" d="M428.656,383.975c-0.033,0-0.071-0.326-0.11-0.916c-0.041-0.701-0.091-1.531-0.147-2.498
					c-0.109-2.111-0.252-5.029-0.295-8.258c-0.049-3.23,0.043-6.158,0.238-8.271c0.092-1.055,0.207-1.906,0.313-2.49
					s0.181-0.902,0.214-0.898c0.076,0.012-0.086,1.309-0.184,3.414c-0.107,2.104-0.144,5.018-0.096,8.24
					c0.059,3.156,0.111,6.01,0.152,8.252c0.013,1.057,0.01,1.914-0.007,2.506C428.717,383.646,428.689,383.975,428.656,383.975z"/>
			</g>
		</g>
		<g>
			<path fill="#1A2E35" d="M462.762,371.92c-0.078,0.072-1.137-1.4-3.44-3.102c-2.266-1.697-5.947-3.508-10.307-3.752
				c-4.36-0.236-8.22,1.158-10.658,2.598c-2.476,1.438-3.69,2.785-3.76,2.703c-0.02-0.018,0.267-0.363,0.853-0.922
				c0.584-0.561,1.496-1.309,2.73-2.078c2.436-1.539,6.378-3.031,10.861-2.787c4.482,0.252,8.237,2.166,10.488,3.965
				c1.143,0.898,1.968,1.742,2.486,2.363C462.536,371.529,462.783,371.904,462.762,371.92z"/>
		</g>
		<g>
			<path fill="#1A2E35" d="M461.432,363.297c-0.066,0.1-1.447-1.295-4.303-2.373c-2.81-1.102-7.169-1.609-11.645-0.35
				c-2.232,0.623-4.274,1.516-6.021,2.506c-1.744,1-3.203,2.092-4.361,3.082c-1.161,0.99-2.049,1.854-2.657,2.457
				c-0.608,0.602-0.946,0.936-0.974,0.912c-0.023-0.021,0.269-0.396,0.837-1.043c0.568-0.645,1.424-1.553,2.567-2.586
				c1.143-1.033,2.6-2.172,4.364-3.211c1.767-1.029,3.837-1.951,6.115-2.586c4.585-1.291,9.06-0.711,11.899,0.498
				c1.436,0.59,2.504,1.266,3.184,1.797c0.351,0.252,0.586,0.496,0.758,0.643C461.362,363.197,461.443,363.283,461.432,363.297z"/>
		</g>
		<g>
			<path fill="#1A2E35" d="M461.518,355.822c-0.026,0.096-1.834-0.457-4.838-0.863c-1.5-0.213-3.302-0.332-5.302-0.336
				c-1.999,0.029-4.195,0.193-6.472,0.582c-2.271,0.412-4.394,1.008-6.283,1.662c-1.879,0.688-3.532,1.414-4.869,2.127
				c-2.685,1.406-4.195,2.543-4.252,2.463c-0.02-0.027,0.35-0.32,1.036-0.828c0.34-0.26,0.765-0.564,1.284-0.879
				c0.516-0.318,1.088-0.711,1.769-1.061c1.329-0.758,2.986-1.525,4.88-2.242c1.903-0.688,4.05-1.305,6.352-1.721
				c2.305-0.395,4.532-0.547,6.556-0.553c2.024,0.029,3.845,0.186,5.353,0.445c0.758,0.096,1.43,0.268,2.023,0.391
				c0.596,0.119,1.1,0.26,1.507,0.389C461.08,355.641,461.527,355.789,461.518,355.822z"/>
		</g>
		<g>
			<path fill="#1A2E35" d="M382.276,264.355c0,0,0.479,0.895,0.716,2.75c0.255,1.842,0.22,4.602-0.392,8.023
				c-0.308,1.707-0.723,3.586-1.337,5.592c-0.643,2.006-1.616,4.059-2.716,6.211c-2.228,4.297-5.032,8.98-8.278,13.977l-0.379,0.584
				l-0.001-0.699c-0.005-3.301-0.011-6.766-0.016-10.363l0.362,0.174c-2.779,2.244-5.708,4.607-8.723,7.041l0.076-0.111
				c-2.021,6.406-3.352,13.541-3.88,20.969c-0.854,11.367-0.166,22.24,0.371,32.104c0.46,9.877,0.76,18.771,1.068,26.24
				c0.296,7.469,0.565,13.512,0.791,17.686c0.122,2.066,0.217,3.682,0.284,4.805c0.035,0.529,0.063,0.945,0.082,1.248
				c0.017,0.281,0.012,0.426,0.012,0.426s-0.027-0.141-0.061-0.422c-0.032-0.301-0.075-0.715-0.131-1.246
				c-0.104-1.096-0.238-2.713-0.375-4.799c-0.284-4.172-0.606-10.215-0.946-17.682c-0.334-7.475-0.731-16.363-1.173-26.232
				c-0.561-9.855-1.265-20.752-0.408-32.164c0.53-7.457,1.873-14.631,3.918-21.074l0.021-0.068l0.055-0.043
				c3.021-2.428,5.953-4.785,8.738-7.023l0.363-0.293v0.467c-0.006,3.598-0.011,7.063-0.016,10.363l-0.381-0.113
				c6.416-9.953,11.636-18.6,12.439-25.596c0.643-3.395,0.715-6.131,0.504-7.963c-0.09-0.922-0.271-1.607-0.384-2.07
				C382.337,264.596,382.276,264.355,382.276,264.355z"/>
		</g>
		<path fill="#FFFFFF" d="M365.522,384.846l-0.333-0.012c-1.352,0.037-2.556,1.273-2.561,2.625
			c-0.003,1.352,1.193,2.594,2.545,2.643c1.351,0.047,2.631-1.111,2.721-2.459C367.984,386.293,366.868,384.977,365.522,384.846z"/>
		<g>
			<path fill="#FFFFFF" d="M365.522,348.844l-0.333-0.012c-1.352,0.039-2.556,1.275-2.561,2.627
				c-0.003,1.352,1.193,2.596,2.545,2.641c1.351,0.049,2.631-1.109,2.721-2.457C367.984,350.293,366.868,348.977,365.522,348.844z"
				/>
			<path fill="#FFFFFF" d="M365.174,316.637c1.351,0.047,2.631-1.109,2.721-2.459c0.09-1.348-1.026-2.664-2.372-2.797l-0.333-0.012
				c-1.352,0.039-2.556,1.273-2.561,2.627C362.626,315.348,363.822,316.59,365.174,316.637z"/>
		</g>
		<g>
			<g>
				<g>
					<path fill="#1A2E35" d="M324.848,222.172c-3.275-3.625-6.58-7.291-8.967-11.553c-2.387-4.264-3.811-9.238-3.021-14.061
						c0.462-2.818,1.661-5.504,1.851-8.354c0.262-3.924-1.387-8.021,0.004-11.699c2.174-5.746,9.91-6.635,14.6-10.605
						c3.652-3.09,5.432-8.111,9.449-10.711c3.509-2.27,8.019-2.221,12.158-1.635c4.139,0.584,8.305,1.631,12.448,1.072
						c2.954-0.396,5.735-1.592,8.628-2.309c2.893-0.715,6.121-0.904,8.697,0.592c2.577,1.498,4.024,5.156,2.334,7.611
						c4.802-2.215,10.9,1.529,12.215,6.648c1.313,5.123-1.316,10.654-5.386,14.033c-4.068,3.377-9.329,4.947-14.525,5.928
						c-14.71,2.771-30.666,1.207-43.343-6.754"/>
				</g>
				<g>
					<g>
						<g>
							<g>
								<g>
									<g>
										<g>
											<g>
												<g>
													<g>
														<g>
															<g>
																<g>
																	<g>
																		<g>
																			<g>
																				<g>
																					<path fill="#FFBF9D" d="M376.559,271.627c-0.717-5.57-1.306-10.215-1.342-10.791
																						c0,0,18.607-4.184,17.583-22.998c-0.495-9.094-3.042-27.738-5.539-44.578
																						c-2.683-18.088-18.826-31.07-37.07-29.852l-1.813,0.123c-19.483,2.449-28.287,20.367-25.298,39.775
																						l10.513,65.076c0,0,4.485,14.396,14.082,16.889l12.109,17.299l2.002-7.447l9.025-7.857
																						c0,0,2.07-2.242,4.449-6.625C377.205,277.059,376.797,273.373,376.559,271.627z"/>
																				</g>
																			</g>
																		</g>
																	</g>
																</g>
															</g>
														</g>
													</g>
												</g>
											</g>
											<g>
												<g>
													<g>
														<g>
															<g>
																<g>
																	<g>
																		<g>
																			<g>
																				<g>
																					<path fill="#FF9A6C" d="M375.23,260.563c0,0-11.816,1.76-24.976-5.326c0,0,6.698,13.143,25.345,10.193
																						L375.23,260.563z"/>
																				</g>
																			</g>
																		</g>
																	</g>
																</g>
															</g>
														</g>
													</g>
												</g>
											</g>
										</g>
									</g>
								</g>
								<g>
									<g>
										<g>
											<g>
												<g>
													<g>
														<g>
															<g>
																<g>
																	<g>
																		<g>
																			<g>
																				<g>
																					<g>
																						<g>
																							<g>
																								<path fill="#1A2E35" d="M381.214,209.426c0.146,1.414-0.933,2.705-2.407,2.883
																									c-1.473,0.178-2.785-0.82-2.93-2.236c-0.145-1.414,0.934-2.705,2.404-2.883
																									C379.756,207.012,381.068,208.012,381.214,209.426z"/>
																							</g>
																						</g>
																					</g>
																				</g>
																			</g>
																		</g>
																	</g>
																</g>
															</g>
														</g>
														<g>
															<g>
																<g>
																	<g>
																		<g>
																			<g>
																				<g>
																					<g>
																						<g>
																							<g>
																								<g>
																									<path fill="#1A2E35" d="M383.839,202.756c-0.31,0.371-2.443-0.998-5.333-0.797
																										c-2.888,0.16-4.908,1.787-5.246,1.455c-0.164-0.146,0.133-0.801,1.011-1.535
																										c0.864-0.73,2.371-1.484,4.171-1.596c1.801-0.111,3.358,0.449,4.273,1.07
																										C383.649,201.975,383.992,202.588,383.839,202.756z"/>
																								</g>
																							</g>
																						</g>
																					</g>
																				</g>
																			</g>
																		</g>
																	</g>
																</g>
															</g>
														</g>
													</g>
													<g>
														<g>
															<g>
																<g>
																	<g>
																		<g>
																			<g>
																				<g>
																					<g>
																						<g>
																							<g>
																								<path fill="#1A2E35" d="M353.922,211.377c0.145,1.416-0.934,2.703-2.408,2.883
																									c-1.471,0.178-2.784-0.822-2.929-2.236c-0.146-1.414,0.933-2.705,2.405-2.883
																									C352.464,208.961,353.777,209.963,353.922,211.377z"/>
																							</g>
																						</g>
																					</g>
																				</g>
																			</g>
																		</g>
																	</g>
																</g>
															</g>
														</g>
														<g>
															<g>
																<g>
																	<g>
																		<g>
																			<g>
																				<g>
																					<g>
																						<g>
																							<g>
																								<g>
																									<path fill="#1A2E35" d="M355.477,205.193c-0.311,0.373-2.447-0.996-5.334-0.795
																										c-2.887,0.16-4.908,1.787-5.246,1.453c-0.164-0.145,0.13-0.799,1.011-1.533
																										c0.865-0.73,2.371-1.484,4.171-1.598c1.801-0.109,3.358,0.451,4.274,1.07
																										C355.283,204.414,355.629,205.027,355.477,205.193z"/>
																								</g>
																							</g>
																						</g>
																					</g>
																				</g>
																			</g>
																		</g>
																	</g>
																</g>
															</g>
														</g>
													</g>
													<g>
														<g>
															<g>
																<g>
																	<g>
																		<g>
																			<g>
																				<g>
																					<g>
																						<g>
																							<g>
																								<path fill="#1A2E35" d="M367.395,225.918c-0.023-0.162,1.75-0.592,4.636-1.16
																									c0.732-0.125,1.421-0.318,1.512-0.83c0.139-0.545-0.224-1.32-0.639-2.154
																									c-0.813-1.738-1.664-3.561-2.558-5.471c-3.564-7.797-6.197-14.227-5.883-14.367
																									c0.315-0.141,3.461,6.064,7.025,13.859c0.861,1.924,1.684,3.756,2.468,5.512
																									c0.335,0.82,0.879,1.738,0.576,2.869c-0.161,0.564-0.676,1.002-1.14,1.16
																									c-0.464,0.176-0.879,0.213-1.242,0.258C369.232,225.947,367.416,226.082,367.395,225.918z"/>
																							</g>
																						</g>
																					</g>
																				</g>
																			</g>
																		</g>
																	</g>
																</g>
															</g>
														</g>
													</g>
												</g>
											</g>
										</g>
										<g>
											<g>
												<g>
													<g>
														<g>
															<g>
																<g>
																	<g>
																		<g>
																			<g>
																				<path fill="#1A2E35" d="M355.465,193.822c-0.232,0.805-3.143,0.625-6.504,1.262
																					c-3.375,0.566-6.042,1.742-6.539,1.068c-0.224-0.324,0.203-1.096,1.258-1.93
																					c1.046-0.834,2.745-1.672,4.765-2.035c2.021-0.357,3.905-0.158,5.173,0.26
																					C354.895,192.865,355.563,193.441,355.465,193.822z"/>
																			</g>
																		</g>
																	</g>
																</g>
															</g>
														</g>
													</g>
												</g>
											</g>
										</g>
										<g>
											<g>
												<g>
													<g>
														<g>
															<g>
																<g>
																	<g>
																		<g>
																			<g>
																				<path fill="#1A2E35" d="M382.217,194.465c-0.464,0.691-2.5,0.143-4.895,0.271
																					c-2.399,0.043-4.391,0.736-4.903,0.08c-0.227-0.318,0.048-0.998,0.893-1.678
																					c0.83-0.678,2.257-1.281,3.905-1.342c1.647-0.059,3.112,0.441,3.99,1.059
																					C382.097,193.473,382.42,194.131,382.217,194.465z"/>
																			</g>
																		</g>
																	</g>
																</g>
															</g>
														</g>
													</g>
												</g>
											</g>
										</g>
									</g>
								</g>
							</g>
						</g>
					</g>
					<g>
						<g>
							<g>
								<g>
									<g>
										<g>
											<g>
												<g>
													<g>
														<g>
															<g>
																<path fill="#FFBF9D" d="M325.546,217.125c-0.33-0.117-13.174-2.957-11.903,9.867
																	c1.271,12.826,15.17,8.646,15.156,8.275C328.784,234.898,325.546,217.125,325.546,217.125z"/>
															</g>
														</g>
													</g>
												</g>
											</g>
										</g>
									</g>
								</g>
							</g>
						</g>
						<g>
							<g>
								<g>
									<g>
										<g>
											<g>
												<g>
													<g>
														<g>
															<g>
																<g>
																	<path fill="#FF9A6C" d="M323.114,231.057c-0.061-0.035-0.208,0.178-0.568,0.389
																		c-0.352,0.205-0.974,0.385-1.667,0.201c-1.404-0.365-2.758-2.402-3.05-4.707c-0.147-1.164-0.013-2.301,0.31-3.262
																		c0.298-0.977,0.84-1.693,1.511-1.881c0.663-0.225,1.187,0.137,1.378,0.482c0.208,0.34,0.152,0.605,0.223,0.619
																		c0.039,0.029,0.253-0.24,0.098-0.76c-0.078-0.25-0.259-0.537-0.583-0.754c-0.334-0.221-0.8-0.303-1.269-0.205
																		c-0.982,0.166-1.782,1.164-2.138,2.221c-0.408,1.064-0.587,2.344-0.42,3.65c0.338,2.576,1.901,4.863,3.808,5.217
																		c0.925,0.145,1.651-0.201,2.011-0.543C323.121,231.369,323.16,231.076,323.114,231.057z"/>
																</g>
															</g>
														</g>
													</g>
												</g>
											</g>
										</g>
									</g>
								</g>
							</g>
						</g>
					</g>
					<g>
						<g>
							<g>
								<path fill="#1A2E35" d="M386.315,175.736c-0.881,5.104-11.235,9.781-19.82,9.531c-7.914-0.229-11.823-4.156-17.575-6.949
									c-3.639-1.766-3.639-1.766-8.578-0.963c-3.994,0.65-6.066,5.363-8.309,8.73c4.271,9.311,2.545,20.139,0.733,30.223
									c-0.198,1.113-0.446,2.316-1.297,3.064c-1.443,1.271-3.78,0.51-5.198-0.789c-2.27-2.078-3.304-5.16-4.048-8.146
									c-1.694-6.803-2.346-13.928-1.27-20.857c1.075-6.928,3.942-13.658,8.677-18.83c5.916-6.463,14.563-10.189,23.314-10.639
									c8.751-0.451,17.54,2.258,24.869,7.059C381.215,169.398,384.395,172.152,386.315,175.736"/>
							</g>
						</g>
					</g>
				</g>
			</g>
			<path fill="#FF9A6C" d="M369.285,232.416c-2.181-1.016-4.359-2.033-6.538-3.049c-0.377-0.176-0.778-0.355-1.189-0.301
				c-0.462,0.063-0.834,0.41-1.131,0.77c-1.517,1.836-1.898,4.607-0.725,6.68s3.935,3.166,6.136,2.256
				c2.316-0.959,3.442-3.65,3.624-6.152L369.285,232.416z"/>
			<g>
				<path fill="#1A2E35" d="M366.042,239.234c0.019,0.057-0.302,0.244-0.957,0.381c-0.647,0.125-1.651,0.174-2.813-0.207
					c-1.149-0.369-2.445-1.264-3.246-2.697c-0.815-1.398-1.11-3.375-0.397-5.158c0.339-0.885,0.87-1.666,1.516-2.285
					c0.328-0.313,0.669-0.568,1.061-0.801c0.205-0.115,0.461-0.227,0.755-0.24c0.288-0.018,0.547,0.059,0.759,0.145
					c0.427,0.193,0.703,0.398,1.018,0.58c0.305,0.188,0.603,0.369,0.892,0.547c0.563,0.354,1.096,0.686,1.592,0.996
					c1.939,1.23,3.104,2.051,3.036,2.166c-0.067,0.115-1.355-0.494-3.382-1.572c-0.516-0.279-1.067-0.576-1.652-0.893
					c-0.297-0.164-0.602-0.332-0.915-0.506c-0.313-0.166-0.651-0.379-0.925-0.486c-0.298-0.104-0.428-0.096-0.715,0.068
					c-0.285,0.18-0.596,0.418-0.859,0.682c-0.537,0.531-0.984,1.199-1.271,1.949c-0.599,1.504-0.382,3.141,0.276,4.379
					c0.653,1.254,1.706,2.072,2.701,2.482c1.003,0.416,1.912,0.48,2.531,0.475C365.668,239.223,366.021,239.162,366.042,239.234z"/>
			</g>
			<g>
				<path fill="#1A2E35" d="M363.979,209.75c-0.076,0.004,0.009-1.195-0.511-3.248c-0.515-2.014-1.857-4.973-4.884-7.264
					c-1.5-1.117-3.388-2.068-5.565-2.449c-2.162-0.365-4.6-0.295-6.921,0.59c-1.168,0.406-2.295,1.021-3.329,1.797
					c-1.046,0.76-1.996,1.703-2.778,2.797c-1.619,2.154-2.53,4.922-2.558,7.773c0.025,2.854,0.938,5.623,2.556,7.777
					c0.783,1.094,1.733,2.037,2.78,2.797c1.034,0.775,2.161,1.391,3.329,1.799c2.321,0.885,4.76,0.955,6.922,0.588
					c2.177-0.381,4.065-1.33,5.564-2.449c3.027-2.289,4.369-5.25,4.884-7.262C363.988,210.941,363.903,209.742,363.979,209.75
					c0.008,0,0.013,0.072,0.014,0.217c-0.003,0.172-0.005,0.383-0.009,0.639c0.002,0.281-0.014,0.629-0.082,1.037
					c-0.053,0.408-0.104,0.883-0.25,1.4c-0.219,1.049-0.691,2.291-1.449,3.615c-0.766,1.316-1.88,2.697-3.408,3.873
					c-1.525,1.166-3.459,2.162-5.7,2.572c-2.226,0.396-4.743,0.34-7.149-0.564c-1.209-0.416-2.379-1.045-3.452-1.846
					c-1.087-0.783-2.073-1.758-2.887-2.889c-1.683-2.227-2.635-5.1-2.658-8.059c0.025-2.957,0.977-5.828,2.658-8.057
					c0.815-1.129,1.8-2.104,2.888-2.887c1.073-0.799,2.242-1.43,3.451-1.846c2.406-0.902,4.924-0.959,7.148-0.564
					c2.241,0.41,4.175,1.406,5.699,2.572c1.53,1.176,2.645,2.557,3.409,3.873c0.759,1.324,1.231,2.568,1.45,3.617
					c0.146,0.518,0.197,0.992,0.25,1.4c0.068,0.406,0.084,0.754,0.082,1.037c0.004,0.256,0.006,0.465,0.009,0.639
					C363.992,209.676,363.987,209.75,363.979,209.75z"/>
			</g>
			<g>
				<path fill="#1A2E35" d="M395.968,208.492c-0.075,0.006,0.007-1.164-0.501-3.164c-0.502-1.961-1.81-4.846-4.759-7.074
					c-1.462-1.09-3.3-2.014-5.421-2.385c-2.106-0.357-4.481-0.287-6.741,0.574c-1.138,0.396-2.235,0.994-3.242,1.75
					c-1.02,0.74-1.944,1.66-2.707,2.725c-1.576,2.098-2.464,4.793-2.49,7.572c0.025,2.779,0.913,5.475,2.489,7.574
					c0.763,1.064,1.688,1.984,2.707,2.725c1.008,0.756,2.105,1.354,3.243,1.75c2.261,0.861,4.636,0.932,6.742,0.574
					c2.12-0.371,3.96-1.295,5.421-2.385c2.948-2.23,4.256-5.113,4.758-7.074C395.975,209.654,395.893,208.484,395.968,208.492
					c0.017,0,0.018,0.287,0.006,0.834c0.001,0.275-0.013,0.615-0.079,1.01c-0.052,0.398-0.103,0.861-0.244,1.365
					c-0.453,2.002-1.733,4.975-4.733,7.301c-1.486,1.137-3.37,2.107-5.556,2.508c-2.169,0.387-4.623,0.332-6.969-0.549
					c-1.18-0.406-2.318-1.02-3.366-1.799c-1.059-0.764-2.021-1.713-2.814-2.816c-1.64-2.172-2.567-4.973-2.592-7.855
					c0.025-2.883,0.953-5.684,2.593-7.855c0.794-1.102,1.756-2.051,2.814-2.814c1.047-0.777,2.186-1.393,3.365-1.797
					c2.346-0.881,4.8-0.938,6.968-0.551c2.185,0.4,4.069,1.371,5.556,2.508c3,2.326,4.281,5.299,4.734,7.301
					c0.142,0.504,0.192,0.967,0.244,1.365c0.066,0.396,0.08,0.734,0.079,1.01C395.985,208.205,395.984,208.492,395.968,208.492z"/>
			</g>
			<g>
				<path fill="#1A2E35" d="M369.863,205.537c-0.053,0.055-0.361-0.207-0.929-0.475c-0.563-0.27-1.406-0.533-2.353-0.516
					c-0.948,0.012-1.779,0.307-2.332,0.598c-0.557,0.289-0.854,0.564-0.909,0.512c-0.045-0.037,0.173-0.41,0.729-0.805
					c0.548-0.393,1.452-0.777,2.504-0.791c1.051-0.02,1.965,0.33,2.527,0.701C369.673,205.135,369.906,205.498,369.863,205.537z"/>
			</g>
			<g>
				
					<ellipse transform="matrix(0.8014 -0.5982 0.5982 0.8014 -61.0598 240.7776)" fill="#1A2E35" cx="332" cy="212.324" rx="7.487" ry="0.242"/>
			</g>
		</g>
		<g opacity="0.3">
			<path d="M326.946,268.639c-1.3,12.676,3.521,26.057,13.688,33.738c0.798,0.604,1.798,1.201,2.738,0.861
				c0.653-0.236,1.071-0.863,1.42-1.463c2.896-5.02,3.869-10.555,3.03-16.289c-1.61,4.24-2.992,8.402-4.618,12.836
				C334.347,292.943,328.825,281.506,326.946,268.639z"/>
		</g>
		<path opacity="0.3" d="M361.367,297.461l7.459-2.725l1.235,12.619c0,0,8.051-14.674,11.382-21.367
			c3.332-6.695,1.619-18.51,1.619-18.51s1.191,10.291-6.877,23.418l-6.088,9.896V290.43L361.367,297.461z"/>
		<g opacity="0.3">
			<path d="M274.576,361.594c-3.328-1.572-7.156-1.783-10.81-1.357c-3.86,0.449-7.735,1.631-10.761,4.072
				c-3.024,2.439-5.074,6.285-4.697,10.152l0.374,0.055c2.602-7.045,7.78-12.174,14.458-12.793
				c6.677-0.619,13.191,2.352,17.774,7.246C280.47,365.316,277.903,363.164,274.576,361.594z"/>
		</g>
		<g opacity="0.3">
			<path d="M463.243,368.797c-2.5-2.697-6.013-4.332-9.637-4.965c-6.362-1.109-13.191,0.867-17.978,5.205l1.424-1.156
				c3.615-2.115,7.784-3.371,11.973-3.252c4.188,0.119,8.379,1.668,11.412,4.559c2.788,2.658,4.465,6.244,6.063,9.75
				C467.125,375.313,465.742,371.496,463.243,368.797z"/>
		</g>
		<g>
			<path fill="#1A2E35" d="M415.149,310.193c-0.031-0.014,0.09-0.375,0.334-1.02c0.288-0.738,0.644-1.645,1.061-2.715
				c0.904-2.289,2.144-5.453,3.453-8.969c1.308-3.52,2.437-6.725,3.249-9.047c0.383-1.082,0.708-2.002,0.972-2.748
				c0.235-0.646,0.381-1,0.413-0.99c0.031,0.01-0.053,0.383-0.232,1.047c-0.18,0.666-0.461,1.623-0.826,2.799
				c-0.729,2.354-1.809,5.584-3.119,9.109c-1.313,3.521-2.604,6.674-3.591,8.93c-0.493,1.131-0.904,2.037-1.205,2.658
				C415.359,309.869,415.18,310.207,415.149,310.193z"/>
		</g>
		<g>
			
				<ellipse transform="matrix(0.1992 0.98 -0.98 0.1992 531.6141 -48.3021)" fill="#1A2E35" cx="295.362" cy="301.135" rx="10.181" ry="0.243"/>
		</g>
		<g>
			<g>
				<path fill="#FFBF9D" d="M295.629,366.674c0.295,0.148-3.422-29.107-3.422-29.107s2.346-22.203,3.665-23.229l0.034-7.834
					c0,0,3.63-2.199,4.605,1.352c0,0,3.22-2.795,3.782,3.859c0.562,6.656,0.681,13.457,0.681,13.457l7.166,17.92l1.181,0.596
					c0,0,1.54-14.037,2.436-16.104s1.509-7.09,4.905-6.336s3.682,3.563,3.07,8.145c-0.611,4.58-1.372,9.307-1.089,12.266
					s1.627,9.469,1.215,14.641c-0.413,5.174-3.245,10.631-6.22,14.461c-2.973,3.832-8.652,11.756-11.74,14.143
					C304.82,385.736,295.629,366.674,295.629,366.674z"/>
				<g>
					<path fill="#FF9A6C" d="M299.246,342.865c-0.033-0.002-0.023-0.447,0.021-1.252c0.062-0.898,0.14-2.037,0.233-3.398
						c0.219-2.867,0.555-6.826,0.954-11.195c0.206-2.18,0.403-4.256,0.583-6.16c0.094-0.941,0.152-1.832,0.033-2.641
						c-0.113-0.809-0.431-1.512-0.894-2.018c-0.946-1.025-2.163-1.285-2.926-1.285c-0.79-0.006-1.203,0.209-1.22,0.156
						c-0.006-0.016,0.094-0.068,0.291-0.154c0.202-0.07,0.51-0.168,0.923-0.191c0.801-0.057,2.11,0.15,3.184,1.24
						c0.528,0.541,0.903,1.324,1.04,2.189c0.146,0.867,0.096,1.797,0.015,2.744c-0.169,1.904-0.352,3.982-0.544,6.164
						c-0.401,4.369-0.79,8.322-1.097,11.182c-0.155,1.355-0.286,2.49-0.389,3.385C299.352,342.43,299.28,342.869,299.246,342.865z"
						/>
				</g>
				<g>
					<path fill="#FF9A6C" d="M303.1,330.9c0.068,0.059-0.729,0.762-1.271,2.311c-0.576,1.525-0.784,3.816-1.19,6.314
						c-0.386,2.502-0.762,4.762-1.059,6.395c-0.297,1.631-0.513,2.635-0.579,2.625s0.03-1.033,0.239-2.68
						c0.209-1.645,0.531-3.914,0.918-6.414c0.405-2.486,0.666-4.797,1.352-6.365c0.323-0.783,0.719-1.357,1.035-1.707
						C302.858,331.023,303.083,330.883,303.1,330.9z"/>
				</g>
				<g>
					<path fill="#FF9A6C" d="M300.465,307.471c0.033-0.006,0.12,0.322,0.25,0.92c0.131,0.598,0.293,1.469,0.471,2.549
						c0.357,2.158,0.748,5.158,0.996,8.488c0.244,3.334,0.299,6.359,0.263,8.547c-0.019,1.094-0.05,1.979-0.093,2.59
						c-0.039,0.609-0.077,0.947-0.11,0.945c-0.072-0.002-0.089-1.352-0.142-3.533c-0.051-2.182-0.16-5.193-0.403-8.512
						c-0.246-3.316-0.582-6.313-0.851-8.477C300.577,308.822,300.394,307.482,300.465,307.471z"/>
				</g>
				<g>
					<path fill="#FF9A6C" d="M321.138,334.9c0.07,0.109-1.048,0.631-2.414,0.205c-1.371-0.41-2.009-1.465-1.889-1.518
						c0.107-0.092,0.825,0.699,2.03,1.053C320.063,335.02,321.1,334.762,321.138,334.9z"/>
				</g>
				<path fill="#FFBF9D" d="M296.031,363.035l-18.932,7.957h-11.28c0,0-11.156,3.482-12.873,13.939
					c-1.717,10.459-1.961,15.842,2.942,17.135c4.904,1.293,18.758,1.438,25.625-0.842c6.865-2.277,24.85-16.791,24.85-16.791
					l1.734-10.498L296.031,363.035z"/>
			</g>
			<g>
				<path fill="#FF9A6C" d="M300.465,374.594c-0.023,0.021-0.213-0.154-0.538-0.494c-0.336-0.33-0.75-0.873-1.229-1.564
					c-0.936-1.396-1.961-3.518-2.644-5.988c-0.708-2.465-1.01-4.771-1.167-6.432c-0.143-1.668-0.136-2.703-0.074-2.707
					c0.072-0.004,0.187,1.021,0.416,2.666c0.243,1.643,0.596,3.914,1.292,6.34c0.673,2.434,1.624,4.521,2.468,5.938
					C299.839,373.766,300.532,374.533,300.465,374.594z"/>
			</g>
		</g>
		<g>
			<path fill="#FF9A6C" d="M308.707,377.914c-0.102-0.039,0.752-1.477,1.079-4.061c0.157-1.281,0.144-2.84-0.224-4.506
				c-0.361-1.67-1.16-3.389-2.319-4.994c-1.15-1.611-2.443-3.016-3.532-4.373c-1.103-1.35-1.983-2.672-2.561-3.869
				c-0.58-1.197-0.848-2.252-0.948-2.984c-0.095-0.738-0.057-1.148-0.033-1.148c0.095-0.021,0.064,1.67,1.288,3.979
				c0.603,1.146,1.49,2.42,2.6,3.74c1.099,1.33,2.406,2.729,3.583,4.375c1.187,1.639,2.014,3.447,2.361,5.18
				c0.355,1.73,0.332,3.34,0.126,4.648c-0.205,1.314-0.567,2.334-0.867,3.008c-0.145,0.342-0.284,0.592-0.383,0.76
				C308.78,377.836,308.723,377.92,308.707,377.914z"/>
		</g>
		<g>
			<g>
				
					<ellipse transform="matrix(0.4593 0.8883 -0.8883 0.4593 436.4084 -69.2955)" fill="#FFFFFF" cx="275.124" cy="323.821" rx="9.574" ry="0.242"/>
			</g>
			<g>
				
					<ellipse transform="matrix(-0.4069 0.9135 -0.9135 -0.4069 706.7944 123.7797)" fill="#FFFFFF" cx="313.213" cy="291.344" rx="7.554" ry="0.244"/>
			</g>
			<g>
				
					<ellipse transform="matrix(0.6378 0.7702 -0.7702 0.6378 364.6376 -144.5618)" fill="#FFFFFF" cx="336.019" cy="315.407" rx="6.435" ry="0.243"/>
			</g>
			<g>
				
					<ellipse transform="matrix(-0.587 0.8096 -0.8096 -0.587 814.433 276.6313)" fill="#FFFFFF" cx="336.654" cy="346.059" rx="5.843" ry="0.243"/>
			</g>
			<g>
				<path fill="#FFFFFF" d="M323.938,393.762c-0.058,0.027-0.483-0.686-1.097-1.877c-0.612-1.191-1.408-2.865-2.208-4.748
					s-1.452-3.615-1.884-4.885c-0.434-1.268-0.651-2.068-0.59-2.092c0.064-0.023,0.397,0.736,0.911,1.971
					c0.586,1.404,1.263,3.025,2.011,4.816c0.77,1.781,1.468,3.395,2.072,4.791C323.686,392.965,324.001,393.73,323.938,393.762z"/>
			</g>
			<g>
				
					<ellipse transform="matrix(0.9818 0.1901 -0.1901 0.9818 77.4509 -58.6936)" fill="#FFFFFF" cx="344.694" cy="374.403" rx="5.728" ry="0.244"/>
			</g>
			<g>
				
					<ellipse transform="matrix(-0.6799 0.7333 -0.7333 -0.6799 873.7429 277.257)" fill="#FFFFFF" cx="376.363" cy="329.314" rx="8.215" ry="0.243"/>
			</g>
			<g>
				
					<ellipse transform="matrix(0.6358 0.7718 -0.7718 0.6358 434.161 -158.2762)" fill="#FFFFFF" cx="384.801" cy="380.929" rx="10.315" ry="0.243"/>
			</g>
			<g>
				<path fill="#FFFFFF" d="M263.593,366.066c0.069,0.133-2.69,1.533-5.697,3.842c-3.021,2.291-5.101,4.58-5.21,4.48
					c-0.048-0.041,0.414-0.668,1.27-1.588c0.854-0.918,2.12-2.115,3.645-3.279c1.527-1.164,3.016-2.068,4.127-2.648
					C262.84,366.289,263.565,366.01,263.593,366.066z"/>
			</g>
			<g>
				
					<ellipse transform="matrix(0.5538 -0.8326 0.8326 0.5538 -170.6406 379.6091)" fill="#FFFFFF" cx="268.893" cy="349.029" rx="4.328" ry="0.243"/>
			</g>
			<g>
				<path fill="#FFFFFF" d="M288.629,365.695c-0.107,0.063-1.08-1.572-1.588-3.838c-0.521-2.264-0.35-4.156-0.228-4.146
					c0.146,0,0.194,1.844,0.701,4.039C288.006,363.947,288.76,365.633,288.629,365.695z"/>
			</g>
			<g>
				
					<ellipse transform="matrix(0.9901 -0.1405 0.1405 0.9901 -39.5623 43.406)" fill="#FFFFFF" cx="287.566" cy="301.834" rx="3.669" ry="0.243"/>
			</g>
			<g>
				
					<ellipse transform="matrix(0.8747 -0.4846 0.4846 0.8747 -98.0065 180.9256)" fill="#FFFFFF" cx="300.955" cy="280.033" rx="3.736" ry="0.243"/>
			</g>
			<g>
				
					<ellipse transform="matrix(0.6058 0.7956 -0.7956 0.6058 358.5829 -156.7138)" fill="#FFFFFF" cx="337.437" cy="283.501" rx="5.628" ry="0.242"/>
			</g>
			<g>
				<path fill="#FFFFFF" d="M387.336,311.203c-0.09,0.086-1.788-1.662-3.363-4.205c-1.586-2.539-2.404-4.834-2.287-4.877
					c0.133-0.057,1.138,2.121,2.7,4.619C385.937,309.246,387.446,311.109,387.336,311.203z"/>
			</g>
			<g>
				
					<ellipse transform="matrix(0.4133 -0.9106 0.9106 0.4133 -56.6121 555.7036)" fill="#FFFFFF" cx="402.934" cy="321.784" rx="5.196" ry="0.243"/>
			</g>
			<g>
				
					<ellipse transform="matrix(0.6396 0.7687 -0.7687 0.6396 366.1577 -206.2369)" fill="#FFFFFF" cx="403.029" cy="287.386" rx="7.085" ry="0.242"/>
			</g>
			<g>
				
					<ellipse transform="matrix(0.0395 0.9992 -0.9992 0.0395 633.6823 -121.9659)" fill="#FFFFFF" cx="380.281" cy="268.622" rx="4.54" ry="0.244"/>
			</g>
			<g>
				
					<ellipse transform="matrix(0.9912 -0.1327 0.1327 0.9912 -32.6746 55.0517)" fill="#FFFFFF" cx="396.757" cy="272.708" rx="5.852" ry="0.243"/>
			</g>
			<g>
				
					<ellipse transform="matrix(0.4355 0.9002 -0.9002 0.4355 506.8345 -226.632)" fill="#FFFFFF" cx="434.108" cy="290.777" rx="7.466" ry="0.244"/>
			</g>
			<g>
				
					<ellipse transform="matrix(-0.1958 0.9806 -0.9806 -0.1958 825.4862 -48.3092)" fill="#FFFFFF" cx="432.551" cy="314.318" rx="5.374" ry="0.244"/>
			</g>
			<g>
				
					<ellipse transform="matrix(0.3303 0.9439 -0.9439 0.3303 609.3072 -199.2968)" fill="#FFFFFF" cx="445.103" cy="329.744" rx="7.689" ry="0.244"/>
			</g>
			<g>
				<path fill="#FFFFFF" d="M445.395,347.188c-0.023,0.119-2.264-0.348-4.718-1.686c-2.464-1.326-4.078-2.947-3.991-3.031
					c0.096-0.113,1.816,1.311,4.223,2.604C443.305,346.383,445.437,347.047,445.395,347.188z"/>
			</g>
			<g>
				
					<ellipse transform="matrix(0.4066 0.9136 -0.9136 0.4066 611.1075 -206.6216)" fill="#FFFFFF" cx="464.621" cy="367.149" rx="3.573" ry="0.244"/>
			</g>
			<g>
				
					<ellipse transform="matrix(0.1155 0.9933 -0.9933 0.1155 699.7419 11.4292)" fill="#FFFFFF" cx="343.453" cy="398.643" rx="4.192" ry="0.244"/>
			</g>
			<g>
				
					<ellipse transform="matrix(-0.2079 0.9781 -0.9781 -0.2079 881.6513 80.4953)" fill="#FFFFFF" cx="408.235" cy="397.209" rx="4.083" ry="0.243"/>
			</g>
		</g>
	</g>
	<g>
		<g>
			<g>
				<g>
					<g>
						<g>
							<g>
								<g>
									<g>
										<path fill="#FAFAFA" d="M419.553,215.986l8.204-14.459c-3.63-5.891-5.727-12.828-5.727-20.254
											c0-21.361,17.314-38.676,38.675-38.676c21.359,0,38.676,17.314,38.676,38.676c0,21.359-17.316,38.674-38.676,38.674
											c-8.919,0-17.127-3.027-23.669-8.098l0.013,0.016L419.553,215.986z"/>
									</g>
								</g>
							</g>
						</g>
						<g>
							<g>
								<g>
									<g>
										<g>
											<path fill="#1A2E35" d="M419.553,215.986c0.831-0.189,6.369-1.455,17.523-4.004l0.18-0.041l-0.112-0.146l-0.014-0.02
												l-0.167,0.168c2.207,1.709,4.85,3.393,7.956,4.797c3.11,1.379,6.674,2.506,10.608,3.027
												c1.965,0.252,4.017,0.414,6.126,0.311c1.054-0.061,2.126-0.086,3.209-0.176c1.074-0.162,2.163-0.326,3.269-0.494
												c4.38-0.863,8.859-2.527,13.036-5.119c4.176-2.584,8.042-6.09,11.141-10.4c3.094-4.303,5.44-9.404,6.538-14.945
												c1.088-5.537,0.998-11.471-0.456-17.213c-1.464-5.723-4.198-11.313-8.292-15.91l-1.581-1.738
												c-0.52-0.586-1.139-1.068-1.701-1.605c-0.589-0.506-1.121-1.08-1.755-1.529l-1.856-1.389
												c-0.602-0.484-1.264-0.877-1.922-1.271c-0.656-0.398-1.31-0.795-1.963-1.191c-0.688-0.332-1.372-0.666-2.056-0.998
												c-0.688-0.316-1.352-0.693-2.074-0.922c-5.62-2.23-11.613-3.08-17.342-2.664c-5.731,0.412-11.215,2.057-15.919,4.705
												c-4.718,2.627-8.697,6.133-11.769,10.051c-3.08,3.92-5.251,8.24-6.595,12.547c-1.336,4.324-1.696,8.613-1.682,12.584
												c0.115,3.979,0.84,7.646,1.895,10.863c1.059,3.223,2.446,5.994,3.881,8.326l-0.002-0.117
												C422.48,210.742,419.95,215.273,419.553,215.986c0.406-0.705,2.999-5.203,8.303-14.402l0.034-0.059l-0.035-0.059
												c-1.409-2.328-2.773-5.088-3.807-8.293c-1.032-3.199-1.734-6.84-1.833-10.787c0.001-3.936,0.373-8.184,1.707-12.463
												c1.344-4.26,3.503-8.533,6.56-12.404c3.048-3.869,6.989-7.33,11.659-9.92c4.654-2.611,10.076-4.227,15.739-4.629
												c5.663-0.404,11.583,0.438,17.134,2.645c0.713,0.225,1.367,0.598,2.049,0.912c0.674,0.328,1.351,0.656,2.028,0.986
												c0.646,0.393,1.291,0.785,1.938,1.178c0.651,0.389,1.306,0.775,1.899,1.256l1.833,1.373
												c0.626,0.441,1.15,1.01,1.732,1.512c0.556,0.529,1.168,1.004,1.682,1.582l1.561,1.717
												c4.044,4.543,6.745,10.064,8.194,15.715c1.438,5.672,1.532,11.535,0.464,17.006c-1.079,5.479-3.393,10.523-6.444,14.781
												c-3.058,4.264-6.874,7.742-11,10.307c-4.128,2.574-8.557,4.23-12.892,5.1c-1.094,0.168-2.172,0.334-3.236,0.498
												c-1.071,0.092-2.134,0.121-3.178,0.184c-2.09,0.109-4.125-0.043-6.072-0.285c-3.902-0.504-7.441-1.605-10.535-2.961
												c-3.091-1.377-5.725-3.035-7.928-4.721l-0.721-0.551l0.553,0.719l0.014,0.016l0.066-0.188
												C425.902,214.447,420.38,215.785,419.553,215.986z"/>
										</g>
									</g>
								</g>
							</g>
						</g>
					</g>
				</g>
			</g>
		</g>
		<g>
			<g>
				<g>
					<g>
						<g>
							<g>
								<g>
									<circle fill="#1A2E35" cx="474.927" cy="179.658" r="3.78"/>
								</g>
							</g>
						</g>
					</g>
				</g>
			</g>
			<g>
				<g>
					<g>
						<g>
							<g>
								<g>
									<circle fill="#1A2E35" cx="459.802" cy="179.658" r="3.779"/>
								</g>
							</g>
						</g>
					</g>
				</g>
			</g>
			<g>
				<g>
					<g>
						<g>
							<g>
								<g>
									<circle fill="#1A2E35" cx="444.208" cy="179.658" r="3.78"/>
								</g>
							</g>
						</g>
					</g>
				</g>
			</g>
		</g>
	</g>
</g>
</svg>
